<?xml version="1.0" encoding="UTF-8"?>
<svg id="_图层_2" data-name="图层 2" xmlns="http://www.w3.org/2000/svg" viewBox="0 0 282.41 47.22">
  <defs>
    <style>
      :root {
        --k-color: #B55756;
        --k-width: 0.5px;
        --k-length: 1000;
        --k-delay: 10s;
      }

      .cls-1 {
        fill: var(--k-color);
        fill-opacity: 0;
        stroke: var(--k-color);
        stroke-width: var(--k-width);
        stroke-dasharray: 0 var(--k-length);
        animation: draw var(--k-delay) infinite;
      }

      @keyframes draw {
        to {
          stroke-dasharray: var(--k-length) 0;
          fill-opacity: 1;
        }
      }
    </style>
  </defs>
  <g id="Dimensions">
    <g>
      <path class="cls-1"
        d="M24.97,0l1.16.75c-.65.69-1.35,1.38-2.12,2.08-.77.7-1.58,1.33-2.44,1.89s-1.76,1.02-2.72,1.38c-.96.35-1.95.53-2.97.53-.46,0-.94-.03-1.45-.09s-1.03-.15-1.56-.25c-.53-.1-1.07-.22-1.61-.36-.54-.13-1.07-.28-1.58-.42-.51-.15-1-.29-1.47-.42-.47-.13-.9-.25-1.3-.36-.4-.1-.75-.18-1.05-.23-.3-.05-.55-.08-.73-.08-.46,0-.93.08-1.41.25-.48.17-.91.41-1.28.72s-.68.71-.91,1.19c-.23.48-.31,1.03-.25,1.66.04.4.1.77.19,1.12.08.35.21.7.39,1.03.18.33.43.65.75.94.32.29.75.57,1.27.84l-.38.78c-.23-.08-.54-.21-.92-.38-.39-.17-.77-.43-1.16-.78-.39-.35-.72-.82-1-1.41-.28-.58-.42-1.33-.42-2.25,0-.44.07-.88.2-1.34.14-.46.33-.92.59-1.38.26-.46.57-.91.94-1.36.36-.45.77-.87,1.2-1.27.44-.4.91-.75,1.41-1.08.5-.32,1.02-.6,1.55-.84.53-.24,1.08-.42,1.64-.53.56-.11,1.11-.16,1.66-.14.92.04,1.81.16,2.67.34s1.73.4,2.61.64c.88.24,1.77.48,2.67.73s1.85.45,2.83.59c.04,0,.12,0,.25-.03.12-.02.3-.06.52-.11.22-.05.46-.11.72-.19.26-.07.53-.16.81-.27.28-.1.56-.22.84-.36.28-.13.54-.28.78-.44s.46-.33.66-.52.34-.38.42-.59ZM17.66,10.06c-.08.23-.19.54-.33.94-.14.4-.27.82-.39,1.27-.12.45-.23.88-.31,1.3-.08.42-.12.76-.12,1.03v17.16c0,.71-.14,1.39-.42,2.03-.28.65-.66,1.23-1.14,1.75-.48.52-1.03.98-1.64,1.39s-1.25.73-1.92.98c-.08.04-.18.09-.3.16s-.23.12-.34.19-.23.12-.34.16c-.11.04-.22.06-.33.06-.15,0-.21-.08-.2-.23s.06-.3.14-.42c.17-.27.31-.58.44-.92s.23-.68.31-1.02c.08-.33.15-.65.19-.95.04-.3.06-.57.06-.8l.06-9.88h-2.81c-.29,0-.57.06-.84.19s-.53.3-.77.52-.44.47-.61.77c-.17.29-.29.6-.38.94-.02.12-.05.27-.09.42s-.09.3-.16.44c-.06.14-.14.25-.22.34s-.19.13-.31.11c-.17-.04-.3-.12-.39-.23-.09-.11-.18-.25-.25-.41s-.13-.32-.17-.5c-.04-.18-.07-.34-.09-.48-.08-.35-.1-.72-.06-1.09s.06-.75.06-1.12c0-.69.15-1.28.45-1.77.3-.49.69-.88,1.17-1.19.48-.3,1-.52,1.56-.66.56-.13,1.09-.2,1.59-.2h2.31l-.06-3.41c0-1.06.14-1.99.41-2.78.27-.79.66-1.48,1.16-2.06.5-.58,1.11-1.08,1.83-1.5.72-.42,1.52-.78,2.39-1.09.12-.06.27-.13.44-.22.17-.08.31-.08.44,0,.12.08.17.21.14.38-.03.17-.08.31-.14.44ZM4.03,47.22c.83-1.42,1.88-2.66,3.12-3.72s2.64-1.96,4.17-2.69c1.53-.73,3.18-1.28,4.95-1.64,1.77-.36,3.58-.54,5.44-.52,1.5.02,3,.18,4.48.48,1.49.3,2.93.73,4.33,1.3v-20.88l-4.66,3.34v7.19c0,.75-.17,1.44-.52,2.08-.34.64-.81,1.22-1.39,1.75s-1.26,1.01-2.03,1.44c-.77.43-1.57.82-2.41,1.17-.04.02-.1.02-.17,0-.07-.02-.14-.05-.2-.09-.06-.04-.11-.09-.14-.16s-.04-.12-.02-.19c.12-.25.27-.52.42-.81.16-.29.3-.58.44-.88.14-.29.25-.59.33-.91s.12-.62.12-.94V12.12c0-.83.18-1.64.53-2.42s.83-1.54,1.42-2.27c.59-.73,1.28-1.41,2.06-2.05.78-.63,1.6-1.23,2.47-1.78.86-.55,1.75-1.05,2.64-1.48s1.76-.81,2.59-1.11c.83-.3,1.6-.54,2.3-.7.7-.17,1.29-.25,1.77-.25.67,0,1.31.06,1.92.19s1.22.31,1.83.56,1.2.56,1.8.94,1.21.81,1.86,1.31l3.34-2.28.88.69-9.25,6.47c-.42-.71-.85-1.39-1.3-2.05s-.93-1.23-1.45-1.73-1.08-.9-1.67-1.19c-.59-.29-1.23-.44-1.92-.44-.71.02-1.44.2-2.19.53-.75.33-1.43.76-2.05,1.28-.61.52-1.12,1.12-1.52,1.8-.4.68-.59,1.37-.59,2.08v13.28l4.69-3.28v-7.97h1.66v6.91l6.34-4.59,8.38,8.22-8.28,6.03c1.15.92,2.16,1.92,3.03,3,.88,1.08,1.68,2.22,2.41,3.42.73,1.2,1.41,2.43,2.05,3.7.64,1.27,1.29,2.55,1.95,3.84l3.09-2.03.78.91-8.19,6.06c-.38-.67-.74-1.38-1.09-2.12s-.7-1.53-1.03-2.34-.67-1.62-1-2.44-.66-1.61-.98-2.41c-.32-.79-.66-1.55-1-2.28-.34-.73-.69-1.41-1.05-2.03s-.72-1.18-1.11-1.67c-.39-.49-.79-.9-1.2-1.23l-3.19,2.41v9.28l3.09-2.12,1.41.81-8.28,6.06c-.92-.31-1.9-.65-2.94-1.02s-2.11-.71-3.22-1.03c-1.1-.32-2.22-.58-3.36-.77s-2.25-.24-3.36-.16c-.92.06-1.79.15-2.61.25-.82.1-1.64.31-2.44.61-.8.3-1.61.74-2.42,1.31s-1.67,1.37-2.56,2.39h-1.31ZM31.91,18.56v11.44l9.84-7.16-6.59-6.47-3.25,2.19Z" />
      <path class="cls-1"
        d="M56,25.47l-2.09-.25.28-1.28c1.29.06,2.53,0,3.7-.17,1.18-.18,2.32-.44,3.42-.8,1.1-.35,2.19-.78,3.25-1.27,1.06-.49,2.14-1,3.22-1.55l6.72,8.31-13.59,7.34v3.5l5.5,2.84,6.53-3.5.72.97-11.12,5.88-8.16-3.84-2.53,1.34-.47-.84,4.62-2.91v-13.78ZM60.84,34.31l8.94-4.75-5.19-6.34c-.54.23-1.12.45-1.75.67s-1.29.42-2,.61v9.81Z" />
      <path class="cls-1"
        d="M79.44,25.47l-2.09-.25.28-1.28c1.29.06,2.53,0,3.7-.17,1.18-.18,2.32-.44,3.42-.8,1.1-.35,2.19-.78,3.25-1.27,1.06-.49,2.14-1,3.22-1.55l6.72,8.31-13.59,7.34v3.5l5.5,2.84,6.53-3.5.72.97-11.12,5.88-8.16-3.84-2.53,1.34-.47-.84,4.62-2.91v-13.78ZM84.28,34.31l8.94-4.75-5.19-6.34c-.54.23-1.12.45-1.75.67s-1.29.42-2,.61v9.81Z" />
      <path class="cls-1"
        d="M104.75,20.06c.25.21.58.48.98.81.41.33.81.7,1.2,1.11s.74.84,1.03,1.31.44.94.44,1.42v3.12l10.5-7.62,5.84,4.06,3.88-2.19.5.75-5.53,3.44v13.66l2.19,2.06,2.06-1.28.72.72-6.06,4.16-4.19-3.53.41-2.12v-13.84l-3.09-2.06-7.12,5.16v10.69l2.16,1.56,2.12-1.25.66.84-6.81,4.56-4.62-3.19-2.19,1.16-.47-.84,4.31-2.91v-13.84l-2.25-1.88-2.56,1.41-.56-.78,6.47-4.66Z" />
      <path class="cls-1"
        d="M134.12,25.47l-2.09-.25.28-1.28c1.29.06,2.53,0,3.7-.17,1.18-.18,2.32-.44,3.42-.8,1.1-.35,2.19-.78,3.25-1.27,1.06-.49,2.14-1,3.22-1.55l6.72,8.31-13.59,7.34v3.5l5.5,2.84,6.53-3.5.72.97-11.12,5.88-8.16-3.84-2.53,1.34-.47-.84,4.62-2.91v-13.78ZM138.97,34.31l8.94-4.75-5.19-6.34c-.54.23-1.12.45-1.75.67s-1.29.42-2,.61v9.81Z" />
      <path class="cls-1"
        d="M183.81.16c.38.27.78.55,1.2.84.43.29.88.56,1.34.8.47.24.95.44,1.44.61.49.17.98.25,1.48.25.52.02,1.03-.04,1.53-.17.5-.13,1-.31,1.48-.53s.95-.47,1.39-.75.83-.57,1.19-.86l.66.38c-.46.77-.93,1.5-1.41,2.19s-1.02,1.3-1.61,1.84c-.59.54-1.28,1.01-2.05,1.39-.77.39-1.68.67-2.72.86v33.72c.9-.4,1.73-.8,2.5-1.2s1.52-.83,2.25-1.27,1.45-.9,2.16-1.39c.71-.49,1.45-1,2.22-1.55l.97.75c-.48.58-1.05,1.17-1.7,1.77s-1.38,1.18-2.17,1.77c-.79.58-1.65,1.16-2.56,1.72s-1.86,1.08-2.84,1.56c-.98.48-1.98.91-3.02,1.28s-2.07.69-3.11.94-2.08.42-3.11.52-2.03.09-2.98-.02c-2.15-.23-4.08-.56-5.81-.98s-3.29-.95-4.67-1.56c-1.39-.61-2.61-1.31-3.67-2.09s-1.99-1.63-2.78-2.55c-.79-.92-1.46-1.89-2.02-2.92s-1.01-2.1-1.38-3.22c-.36-1.11-.65-2.27-.84-3.45s-.35-2.41-.45-3.66c-.08-1.21-.05-2.42.11-3.64s.43-2.42.81-3.61.88-2.35,1.47-3.5c.59-1.15,1.27-2.25,2.02-3.31s1.58-2.07,2.5-3.03c.92-.96,1.89-1.85,2.92-2.67,1.03-.82,2.11-1.56,3.23-2.22s2.28-1.21,3.47-1.67l.47.69c-2.21,1.38-4.02,2.8-5.42,4.27s-2.52,2.99-3.34,4.56c-.82,1.57-1.4,3.21-1.72,4.92-.32,1.71-.5,3.49-.55,5.34-.04,1.44.03,2.83.2,4.19.18,1.35.47,2.64.88,3.86s.92,2.37,1.55,3.45c.62,1.08,1.36,2.08,2.2,3,.84.92,1.8,1.73,2.86,2.45s2.23,1.33,3.52,1.83,2.68.88,4.19,1.14c1.51.26,3.13.38,4.86.36.9,0,1.78-.07,2.66-.22.88-.15,1.75-.26,2.62-.34V7c-.54-.04-1.11-.11-1.7-.2s-1.18-.22-1.75-.39c-.57-.17-1.13-.37-1.67-.61-.54-.24-1.04-.55-1.5-.92l-2.78,1.75v22.31c0,.83-.15,1.64-.45,2.41-.3.77-.75,1.47-1.33,2.11-.58.64-1.31,1.19-2.19,1.66s-1.89.82-3.03,1.05c-.06.02-.12,0-.17-.05-.05-.05-.09-.11-.12-.19-.03-.07-.05-.15-.05-.23s.01-.15.03-.19c.21-.29.41-.6.61-.94.2-.33.38-.68.55-1.03.17-.35.31-.71.42-1.08.11-.36.17-.73.17-1.11V10.78l-6.16,4.16-.56-1.06L183.81.16Z" />
      <path class="cls-1"
        d="M201.81,4c.65.73,1.22,1.45,1.73,2.16.51.71,1,1.44,1.48,2.19.31-.5.64-1,.97-1.52.33-.51.68-1,1.03-1.47s.72-.92,1.09-1.36.78-.84,1.22-1.22l1.03.34c-.33.52-.68,1.09-1.03,1.72s-.67,1.28-.95,1.95c-.28.68-.51,1.38-.69,2.09s-.27,1.43-.27,2.14v16.22l11.84-7.12,4.69,3.38,1.81-1.28.69.69-3.53,2.88v14.16l2.16,2.06,2.16-1.34.72.84-6.03,4.09-4.16-3.59.31-1.62v-15.03l-2.59-1.56-7.97,4.84v11.19l2.06,1.56,2.19-1.28.5.84-6.84,4.5-4.56-3.19-2.09,1.47-.56-.94,4.28-3.12V9.47c0-.44-.05-.87-.16-1.3-.1-.43-.23-.85-.39-1.27-.16-.42-.32-.83-.48-1.23s-.31-.82-.44-1.23l.78-.44Z" />
      <path class="cls-1"
        d="M232.72,25.47l-2.09-.25.28-1.28c1.29.06,2.53,0,3.7-.17,1.18-.18,2.32-.44,3.42-.8,1.1-.35,2.19-.78,3.25-1.27,1.06-.49,2.14-1,3.22-1.55l6.72,8.31-13.59,7.34v3.5l5.5,2.84,6.53-3.5.72.97-11.12,5.88-8.16-3.84-2.53,1.34-.47-.84,4.62-2.91v-13.78ZM237.56,34.31l8.94-4.75-5.19-6.34c-.54.23-1.12.45-1.75.67s-1.29.42-2,.61v9.81Z" />
      <path class="cls-1"
        d="M258.03,20.06c.25.21.58.48.98.81.41.33.81.7,1.2,1.11s.74.84,1.03,1.31.44.94.44,1.42v3.12l10.5-7.62,5.84,4.06,3.88-2.19.5.75-5.53,3.44v13.66l2.19,2.06,2.06-1.28.72.72-6.06,4.16-4.19-3.53.41-2.12v-13.84l-3.09-2.06-7.12,5.16v10.69l2.16,1.56,2.12-1.25.66.84-6.81,4.56-4.62-3.19-2.19,1.16-.47-.84,4.31-2.91v-13.84l-2.25-1.88-2.56,1.41-.56-.78,6.47-4.66Z" />
    </g>
  </g>
</svg>