<?xml version="1.0" encoding="UTF-8"?>
<svg id="_图层_2" data-name="图层 2" xmlns="http://www.w3.org/2000/svg" viewBox="0 0 748 104">
  <defs>
    <style>
      .cls-1 {
        fill: #ad5554;
      }

      .cls-1, .cls-2 {
        stroke-width: 0px;
      }

      .cls-2 {
        fill: none;
      }
    </style>
  </defs>
  <g id="_图层_1-2" data-name="图层 1">
    <g>
      <g>
        <path class="cls-1" d="M10,97.25V6.25h22v36.83L69.39,6.25h9.54l-31.54,31.23,36.12,59.77h-25.43l-26.07-43.46v43.46H10ZM16,91.25h9V13.25h-9v78ZM61.78,91.25h10.11l-29.31-48.38-6.27,6.02,25.47,42.37Z"/>
        <path class="cls-1" d="M93,98.25V6.25h56v7h-33v33h28v7h-28v38h33v7h-56ZM100,91.25h9V13.25h-9v78Z"/>
        <path class="cls-1" d="M165,98.25V6.25h56v7h-33v33h28v7h-28v38h33v7h-56ZM172,91.25h9V13.25h-9v78Z"/>
        <path class="cls-1" d="M240,97.25V6.25h7.91l60.09,62.45V6.25h7v91h-8.04l-59.96-62.58v62.58h-7ZM308,90.86v-12.51L247,13.27v12.63l61,64.96Z"/>
        <path class="cls-1" d="M337,98.25V6.25h56v7h-34v33h28v7h-28v38h34v7h-56ZM343,91.25h9V13.25h-9v78Z"/>
        <path class="cls-1" d="M447.94,99.09c-9.48,0-17.38-1.92-23.7-5.77-6.32-3.84-11.04-9.31-14.16-16.4-3.12-7.09-4.68-15.42-4.68-24.98s1.69-17.38,5.06-24.47c3.37-7.09,8.35-12.62,14.93-16.59,6.58-3.97,14.56-5.96,23.96-5.96,4.1,0,8.14.26,12.11.77,3.97.51,8.01,1.58,12.11,3.2l-3.33,7.17c-6.83-2.9-13.88-4.36-21.14-4.36-3.67,0-7.11.41-10.31,1.22-3.2.81-6.13,1.94-8.78,3.39v72.01c5.3,2.65,11.66,3.97,19.09,3.97,3.5,0,7.13-.28,10.89-.83,3.76-.55,7.43-1.3,11.02-2.24v7.56c-4.02.85-7.86,1.45-11.53,1.79-3.67.34-7.52.51-11.53.51ZM423,83.42V21.47c-7.08,7.08-10.62,17.37-10.62,30.85,0,6.74.87,12.74,2.62,17.98,1.75,5.25,4.42,9.62,8,13.12Z"/>
        <path class="cls-1" d="M492,97.25V6.25h22v40h31V6.25h22v91h-22v-44h-31v44h-22ZM499,91.25h9V13.25h-9v78ZM551,91.25h9V13.25h-9v78Z"/>
        <path class="cls-1" d="M589,98.25V6.25h56v7h-34v33h28v7h-28v38h34v7h-56ZM596,91.25h9V13.25h-9v78Z"/>
        <path class="cls-1" d="M663,97.25V6.25h7.91l60.09,62.45V6.25h7v91h-8.04l-59.96-62.58v62.58h-7ZM731,90.86v-12.51l-61-65.08v12.63l61,64.96Z"/>
      </g>
      <rect class="cls-2" width="748" height="104"/>
    </g>
  </g>
</svg>