<?xml version="1.0" encoding="UTF-8"?>
<svg id="_图层_2" data-name="图层 2" xmlns="http://www.w3.org/2000/svg" viewBox="0 0 688 110">
  <defs>
    <style>
      .cls-1 {
        fill: none;
      }

      .cls-1, .cls-2 {
        stroke-width: 0px;
      }

      .cls-2 {
        fill: #fff;
      }
    </style>
  </defs>
  <g id="_图层_1-2" data-name="图层 1">
    <g>
      <g>
        <path class="cls-2" d="M10,102.48V11.48h22v36.83L69.39,11.48h9.54l-31.54,31.23,36.12,59.77h-25.43l-26.07-43.46v43.46H10ZM16,96.48h9V18.48h-9v78ZM61.78,96.48h10.11l-29.31-48.38-6.27,6.02,25.47,42.37Z"/>
        <path class="cls-2" d="M124,104.52c-10.33,0-18.48-3.16-24.43-9.47-5.96-6.31-8.94-15.02-8.94-26.11,0-7.25,1.23-13.55,3.69-18.88,2.46-5.33,5.96-9.45,10.5-12.35,4.54-2.9,9.94-4.35,16.19-4.35,8.67,0,15.33,2.92,20,8.77,4.67,5.85,7,14.06,7,24.64v3.71h-35v26.11c1.61.6,3.29,1.05,5.03,1.34,1.74.3,3.55.45,5.42.45,6.71,0,13.9-1.71,21.55-5.12v6.78c-6.75,2.99-13.75,4.48-21,4.48ZM106,93v-49.54c-6.66,5.12-9.98,13.53-9.98,25.22,0,10.33,3.33,18.43,9.98,24.32ZM112,63.48h28.42c-.43-8.19-2.46-14.27-6.08-18.24-3.63-3.97-8.6-5.95-14.91-5.95-1.37,0-2.67.06-3.9.19-1.24.13-2.41.41-3.52.83v23.17Z"/>
        <path class="cls-2" d="M193,104.52c-10.33,0-18.48-3.16-24.43-9.47-5.96-6.31-8.94-15.02-8.94-26.11,0-7.25,1.23-13.55,3.69-18.88,2.46-5.33,5.96-9.45,10.5-12.35,4.54-2.9,9.94-4.35,16.18-4.35,8.67,0,15.33,2.92,20,8.77,4.67,5.85,7,14.06,7,24.64v3.71h-35v26.11c1.61.6,3.29,1.05,5.03,1.34,1.74.3,3.55.45,5.42.45,6.71,0,13.9-1.71,21.55-5.12v6.78c-6.75,2.99-13.75,4.48-21,4.48ZM175,93v-49.54c-6.65,5.12-9.98,13.53-9.98,25.22,0,10.33,3.33,18.43,9.98,24.32ZM181,63.48h28.42c-.43-8.19-2.46-14.27-6.08-18.24-3.63-3.97-8.6-5.95-14.91-5.95-1.37,0-2.67.06-3.9.19-1.24.13-2.41.41-3.52.83v23.17Z"/>
        <path class="cls-2" d="M230,103.48V34.48h23v10.04c4.33-7.55,11.33-11.33,21-11.33,6.28,0,11.35,1.91,15.21,5.73,3.86,3.82,5.79,8.9,5.79,15.25v49.3h-22v-63.23c-3.57,0-6.88,1.05-9.94,3.14-3.06,2.09-5.5,4.86-7.33,8.32-1.83,3.46-2.74,7.23-2.74,11.33v40.45h-23ZM237,96.48h9v-55h-9v55ZM279,96.48h9v-43.14c0-2.99-.87-5.7-2.62-8.13-1.75-2.43-3.87-3.95-6.38-4.54v55.81Z"/>
        <path class="cls-2" d="M343,104.52c-10.33,0-18.48-3.16-24.43-9.47-5.96-6.31-8.94-15.02-8.94-26.11,0-7.25,1.23-13.55,3.69-18.88,2.46-5.33,5.96-9.45,10.5-12.35,4.54-2.9,9.94-4.35,16.18-4.35,8.67,0,15.33,2.92,20,8.77,4.67,5.85,7,14.06,7,24.64v3.71h-35v26.11c1.61.6,3.29,1.05,5.03,1.34,1.74.3,3.55.45,5.42.45,6.71,0,13.9-1.71,21.55-5.12v6.78c-6.75,2.99-13.75,4.48-21,4.48ZM325,93v-49.54c-6.65,5.12-9.98,13.53-9.98,25.22,0,10.33,3.33,18.43,9.98,24.32ZM332,63.48h28.42c-.43-8.19-2.46-14.27-6.08-18.24-3.63-3.97-8.6-5.95-14.91-5.95-1.37,0-2.67.06-3.9.19-1.24.13-2.41.41-3.52.83v23.17Z"/>
        <path class="cls-2" d="M420.94,104.31c-9.48,0-17.38-1.92-23.7-5.77s-11.04-9.31-14.16-16.4c-3.12-7.09-4.68-15.42-4.68-24.98s1.69-17.38,5.06-24.47c3.37-7.09,8.35-12.62,14.93-16.59,6.58-3.97,14.56-5.96,23.96-5.96,4.1,0,8.14.26,12.11.77,3.97.51,8.01,1.58,12.11,3.2l-3.33,7.17c-6.83-2.9-13.88-4.36-21.14-4.36-3.67,0-7.11.41-10.31,1.22-3.2.81-6.13,1.94-8.78,3.39v72c5.3,2.65,11.66,3.97,19.09,3.97,3.5,0,7.13-.28,10.89-.83,3.76-.55,7.43-1.3,11.02-2.24v7.56c-4.02.85-7.86,1.45-11.53,1.79-3.67.34-7.52.51-11.53.51ZM396,88.65V26.7c-7.08,7.08-10.62,17.37-10.62,30.85,0,6.74.87,12.74,2.62,17.98,1.75,5.25,4.42,9.62,8,13.12Z"/>
        <path class="cls-2" d="M463,102.48V5.48h22v38.54c4.33-7.49,11.33-11.23,21-11.23,6.28,0,11.35,1.89,15.21,5.68,3.86,3.79,5.79,8.83,5.79,15.12v48.88h-22v-63.23c-3.65,0-6.99,1.05-10,3.14-3.01,2.09-5.43,4.86-7.26,8.32-1.83,3.46-2.74,7.23-2.74,11.33v40.45h-22ZM469,96.48h9V12.48h-9v84ZM511,96.48h9v-43.14c0-2.99-.87-5.7-2.62-8.13-1.75-2.43-3.87-3.95-6.38-4.54v55.81Z"/>
        <path class="cls-2" d="M576,104.52c-10.33,0-18.48-3.16-24.43-9.47-5.96-6.31-8.94-15.02-8.94-26.11,0-7.25,1.23-13.55,3.69-18.88,2.46-5.33,5.96-9.45,10.5-12.35,4.54-2.9,9.94-4.35,16.18-4.35,8.67,0,15.33,2.92,20,8.77,4.67,5.85,7,14.06,7,24.64v3.71h-35v26.11c1.61.6,3.29,1.05,5.03,1.34,1.74.3,3.55.45,5.42.45,6.71,0,13.9-1.71,21.55-5.12v6.78c-6.75,2.99-13.75,4.48-21,4.48ZM558,93v-49.54c-6.65,5.12-9.98,13.53-9.98,25.22,0,10.33,3.33,18.43,9.98,24.32ZM565,63.48h28.42c-.43-8.19-2.46-14.27-6.08-18.24-3.63-3.97-8.6-5.95-14.91-5.95-1.37,0-2.67.06-3.9.19-1.24.13-2.41.41-3.52.83v23.17Z"/>
        <path class="cls-2" d="M614,103.48V34.48h22v10.04c4.33-7.55,11.33-11.33,21-11.33,6.28,0,11.35,1.91,15.21,5.73,3.86,3.82,5.79,8.9,5.79,15.25v49.3h-22v-63.23c-3.57,0-6.88,1.05-9.94,3.14-3.06,2.09-5.5,4.86-7.33,8.32-1.83,3.46-2.74,7.23-2.74,11.33v40.45h-22ZM620,96.48h9v-55h-9v55ZM663,96.48h9v-43.14c0-2.99-.87-5.7-2.62-8.13-1.75-2.43-3.87-3.95-6.38-4.54v55.81Z"/>
      </g>
      <rect class="cls-1" width="688" height="110"/>
    </g>
  </g>
</svg>