<?xml version="1.0" encoding="UTF-8"?>
<svg id="_图层_2" data-name="图层 2" xmlns="http://www.w3.org/2000/svg" viewBox="0 0 180 45">
  <defs>
    <style>
      .cls-1 {
        fill: none;
      }

      .cls-1, .cls-2 {
        stroke-width: 0px;
      }

      .cls-2 {
        fill: #fff;
      }
    </style>
  </defs>
  <g id="_图层_1-2" data-name="图层 1">
    <g>
      <g>
        <path class="cls-2" d="M10,34.99V9.99h6v14.69l8.46-6.69h2.81l-6.62,5.23,7.32,11.77h-6.87l-5.06-8.15-.03.03v8.12h-6ZM12,32.99h2V11.99h-2v21ZM21.59,32.99h2.43l-5.15-9.06-1.66,1.44,4.38,7.62Z"/>
        <path class="cls-2" d="M36.76,35.01c-2.64,0-4.73-.79-6.26-2.37s-2.29-3.75-2.29-6.53c0-1.81.32-3.39.94-4.72.63-1.33,1.53-2.36,2.69-3.09,1.16-.73,2.54-1.09,4.14-1.09,2.22,0,3.92.73,5.12,2.19,1.2,1.46,1.79,3.51,1.89,6.16v1.42h-9v6.53c.4.15.82.26,1.26.34.43.08.89.11,1.35.11,1.68,0,3.47-.43,5.39-1.28v1.2s-3.39,1.12-5.24,1.12ZM32,32.19v-12.38c-1.66,1.28-2.5,3.38-2.5,6.3,0,2.58.83,4.61,2.5,6.08ZM34,24.99h7.1c-.11-2.05-.61-3.57-1.52-4.56-.91-.99-2.15-1.49-3.73-1.49-.34,0-.67.02-.98.05-.31.03-.6.1-.88.21v5.79Z"/>
        <path class="cls-2" d="M54.01,35.01c-2.65,0-4.73-.79-6.26-2.37-1.53-1.58-2.29-3.75-2.29-6.53,0-1.81.32-3.39.95-4.72.63-1.33,1.52-2.36,2.69-3.09,1.16-.73,2.54-1.09,4.14-1.09,2.22,0,3.92.73,5.12,2.19s1.79,3.51,1.64,6.16v1.42h-9v6.53c.4.15.82.26,1.26.34.44.08.89.11,1.35.11,1.68,0,3.47-.43,5.39-1.28v1.2s-3.14,1.12-4.99,1.12ZM50,32.19v-12.38c-1.66,1.28-2.5,3.38-2.5,6.3,0,2.58.83,4.61,2.5,6.08ZM51,24.99h7.1c-.11-2.05-.61-3.57-1.52-4.56-.91-.99-2.15-1.49-3.73-1.49-.34,0-.67.02-.98.05-.31.03-.6.1-.88.21v5.79Z"/>
        <path class="cls-2" d="M63,34.99v-17h6v2.47c1.13-1.86,2.97-2.79,5.5-2.79,1.64,0,2.97.47,3.98,1.41,1.01.94,1.52,2.19,1.52,3.76v12.15h-6v-15.81c-.89,0-1.72.26-2.48.78-.76.52-1.37,1.22-1.83,2.08-.46.86-.68,1.81-.68,2.83v10.11h-6ZM65,32.99h2v-14h-2v14ZM76,32.99h2v-10.74c0-.51-.16-1.32-.4-1.77-.42-.79-.95-1.27-1.6-1.44v13.95Z"/>
        <path class="cls-2" d="M91.57,35.01c-2.65,0-4.73-.79-6.26-2.37s-2.29-3.75-2.29-6.53c0-1.81.31-3.39.94-4.72.63-1.33,1.53-2.36,2.69-3.09s2.54-1.09,4.14-1.09c2.22,0,3.93.73,5.12,2.19s1.79,3.51,2.08,6.16v1.42h-9v6.53c.4.15.82.26,1.26.34.43.08.89.11,1.35.11,1.68,0,3.47-.43,5.39-1.28v1.2s-3.57,1.12-5.43,1.12ZM87,32.19v-12.38c-1.66,1.28-2.5,3.38-2.5,6.3,0,2.58.83,4.61,2.5,6.08ZM89,24.99h7.1c-.11-2.05-.61-3.57-1.52-4.56-.91-.99-2.15-1.49-3.73-1.49-.34,0-.67.02-.98.05-.31.03-.6.1-.88.21v5.79Z"/>
        <path class="cls-2" d="M107.72,34.49c-2.27,0-4.05-.72-5.34-2.17-1.29-1.45-1.93-3.52-1.93-6.21s.63-4.76,1.9-6.21c1.27-1.45,3.02-2.17,5.28-2.17,1.75,0,3.3.29,4.64.87l-.57,1.51c-1.33-.62-2.67-.93-4.04-.93-.28,0-.56.02-.84.05-.28.03-.55.09-.82.17v13.41c.58.16,1.16.24,1.72.24,1.55,0,2.97-.34,4.28-1.03v1.6c-1.23.58-2.65.87-4.28.87ZM104,32.38v-12.54c-1.66,1.28-2.5,3.37-2.5,6.27s.83,5.01,2.5,6.27Z"/>
        <path class="cls-2" d="M116,34.99V10.99h6v9.54c1.13-1.85,2.97-2.78,5.5-2.78,1.64,0,2.97.47,3.98,1.41,1.01.94,1.52,2.18,1.52,3.74v12.09h-6v-15.81c-.91,0-1.75.26-2.5.78-.75.52-1.36,1.22-1.82,2.08-.46.86-.69,1.81-.69,2.83v10.11h-6ZM118,32.99h2V11.99h-2v21ZM129,32.99h2v-10.74c0-.51-.17-1.32-.41-1.77-.42-.79-.95-1.27-1.59-1.44v13.95Z"/>
        <path class="cls-2" d="M144.5,35.01c-2.65,0-4.73-.79-6.26-2.37-1.53-1.58-2.29-3.75-2.29-6.53,0-1.81.32-3.39.95-4.72.63-1.33,1.52-2.36,2.69-3.09,1.16-.73,2.54-1.09,4.14-1.09,2.22,0,3.92.73,5.12,2.19s1.79,3.51,2.15,6.16v1.42h-9v6.53c.4.15.82.26,1.26.34.44.08.89.11,1.35.11,1.68,0,3.47-.43,5.39-1.28v1.2s-3.64,1.12-5.5,1.12ZM140,32.19v-12.38c-1.66,1.28-2.5,3.38-2.5,6.3,0,2.58.83,4.61,2.5,6.08ZM142,24.99h7.1c-.11-2.05-.61-3.57-1.52-4.56-.91-.99-2.15-1.49-3.73-1.49-.34,0-.67.02-.98.05-.31.03-.6.1-.88.21v5.79Z"/>
        <path class="cls-2" d="M154,34.99v-17h5v2.47c1.13-1.86,2.97-2.79,5.5-2.79,1.64,0,2.97.47,3.98,1.41,1.01.94,1.52,2.19,1.52,3.76v12.15h-5v-15.81c-.89,0-1.72.26-2.48.78-.76.52-1.37,1.22-1.83,2.08-.46.86-.68,1.81-.68,2.83v10.11h-6ZM156,32.99h2v-14h-2v14ZM166,32.99h2v-10.74c0-.51-.16-1.32-.4-1.77-.42-.79-.95-1.27-1.6-1.44v13.95Z"/>
      </g>
      <rect class="cls-1" width="180" height="45"/>
    </g>
  </g>
</svg>