<?xml version="1.0" encoding="UTF-8"?>
<svg id="_图层_2" data-name="图层 2" xmlns="http://www.w3.org/2000/svg" viewBox="0 0 188 44">
  <defs>
    <style>
      .cls-1 {
        fill: none;
      }

      .cls-1, .cls-2 {
        stroke-width: 0px;
      }

      .cls-2 {
        fill: #fff;
      }
    </style>
  </defs>
  <g id="_图层_1-2" data-name="图层 1">
    <g>
      <g>
        <path class="cls-2" d="M10,33.77V10.77h6v9.31l10.19-9.31h2.6l-8.6,7.89,9.85,15.11h-6.93l-7.11-10.98v10.98h-6ZM12,31.77h2V12.77h-2v19ZM23.41,31.77h2.53l-7.33-12.1-1.57,1.5,6.37,10.59Z"/>
        <path class="cls-2" d="M38.74,34.23c-2.64,0-4.73-.79-6.26-2.37s-2.29-3.75-2.29-6.53c0-1.81.32-3.39.94-4.72.63-1.33,1.53-2.36,2.69-3.09,1.16-.73,2.54-1.09,4.14-1.09,2.22,0,3.92.73,5.12,2.19,1.2,1.46,1.79,3.51,1.91,6.16v.97h-9v6.53c.4.15.82.26,1.26.34.43.08.89.11,1.35.11,1.68,0,3.47-.43,5.39-1.28v1.65s-3.4,1.12-5.26,1.12ZM34,31.42v-12.38c-1.66,1.28-2.5,3.38-2.5,6.3,0,2.58.83,4.61,2.5,6.08ZM36,23.77h7.1c-.11-2.05-.61-3.57-1.52-4.56-.91-.99-2.15-1.49-3.73-1.49-.34,0-.67.02-.98.05-.31.03-.6.1-.88.21v5.79Z"/>
        <path class="cls-2" d="M55.99,34.23c-2.65,0-4.73-.79-6.26-2.37-1.53-1.58-2.29-3.75-2.29-6.53,0-1.81.32-3.39.95-4.72.63-1.33,1.52-2.36,2.69-3.09,1.16-.73,2.54-1.09,4.14-1.09,2.22,0,3.92.73,5.12,2.19s1.79,3.51,1.66,6.16v.97h-9v6.53c.4.15.82.26,1.26.34.44.08.89.11,1.35.11,1.68,0,3.47-.43,5.39-1.28v1.65s-3.15,1.12-5.01,1.12ZM52,31.42v-12.38c-1.66,1.28-2.5,3.38-2.5,6.3,0,2.58.83,4.61,2.5,6.08ZM53,23.77h7.1c-.11-2.05-.61-3.57-1.52-4.56-.91-.99-2.15-1.49-3.73-1.49-.34,0-.67.02-.98.05-.31.03-.6.1-.88.21v5.79Z"/>
        <path class="cls-2" d="M65,33.77v-17h6v2.47c1.13-1.86,2.97-2.79,5.5-2.79,1.64,0,2.97.47,3.98,1.41s1.52,2.19,1.52,3.76v12.15h-6v-15.81c-.89,0-1.72.26-2.48.78-.76.52-1.37,1.22-1.83,2.08-.46.86-.68,1.81-.68,2.83v10.11h-6ZM67,32.77h2v-14h-2v14ZM78,31.77h2v-10.74c0-.51-.16-1.32-.4-1.77-.42-.79-.95-1.27-1.6-1.44v13.95Z"/>
        <path class="cls-2" d="M93.56,34.23c-2.65,0-4.73-.79-6.26-2.37s-2.29-3.75-2.29-6.53c0-1.81.31-3.39.94-4.72.63-1.33,1.53-2.36,2.69-3.09s2.54-1.09,4.14-1.09c2.22,0,3.93.73,5.12,2.19s1.79,3.51,2.09,6.16v.97h-9v6.53c.4.15.82.26,1.26.34.43.08.89.11,1.35.11,1.68,0,3.47-.43,5.39-1.28v1.65s-3.59,1.12-5.44,1.12ZM89,31.42v-12.38c-1.66,1.28-2.5,3.38-2.5,6.3,0,2.58.83,4.61,2.5,6.08ZM91,23.77h7.1c-.11-2.05-.61-3.57-1.52-4.56-.91-.99-2.15-1.49-3.73-1.49-.34,0-.67.02-.98.05-.31.03-.6.1-.88.21v5.79Z"/>
        <path class="cls-2" d="M113.38,33.96c-2.31,0-4.24-.47-5.78-1.41-1.54-.94-2.69-2.27-3.45-4-.76-1.73-1.14-3.76-1.14-6.09s.41-4.24,1.23-5.97c.82-1.73,2.04-3.08,3.64-4.05,1.6-.97,3.55-1.45,5.84-1.45,1,0,1.98.06,2.95.19.97.12,1.95.39,2.95.78l-.81,1.75c-1.67-.71-3.39-1.06-5.16-1.06-.9,0-1.73.1-2.52.3-.78.2-1.5.47-2.14.83v17.56c1.29.65,2.84.97,4.66.97.85,0,1.74-.07,2.66-.2.92-.14,1.81-.32,2.69-.55v1.84c-.98.21-1.92.35-2.81.44-.9.08-1.83.12-2.81.12ZM107,30.33v-15.49c-1.77,1.77-2.66,4.34-2.66,7.71,0,1.69.22,3.18.66,4.5.44,1.31,1.1,2.41,2,3.28Z"/>
        <path class="cls-2" d="M123,33.77V9.77h6v9.54c1.13-1.85,2.97-2.78,5.5-2.78,1.65,0,2.97.47,3.98,1.41,1.01.94,1.52,2.18,1.52,3.74v12.09h-6v-15.81c-.91,0-1.75.26-2.5.78-.75.52-1.36,1.22-1.82,2.08-.46.86-.68,1.81-.68,2.83v10.11h-6ZM125,31.77h2V10.77h-2v21ZM136,31.77h2v-10.74c0-.51-.16-1.32-.4-1.77-.42-.79-.95-1.27-1.6-1.44v13.95Z"/>
        <path class="cls-2" d="M151.86,34.23c-2.64,0-4.73-.79-6.26-2.37s-2.29-3.75-2.29-6.53c0-1.81.31-3.39.94-4.72.63-1.33,1.53-2.36,2.69-3.09s2.54-1.09,4.14-1.09c2.22,0,3.93.73,5.12,2.19,1.2,1.46,1.79,3.51,1.79,6.16v.97h-9v6.53c.4.15.82.26,1.26.34.44.08.89.11,1.36.11,1.68,0,3.47-.43,5.39-1.28v1.65s-3.29,1.12-5.14,1.12ZM148,31.42v-12.38c-1.66,1.28-2.5,3.38-2.5,6.3,0,2.58.83,4.61,2.5,6.08ZM149,23.77h7.11c-.11-2.05-.62-3.57-1.52-4.56-.91-.99-2.15-1.49-3.73-1.49-.34,0-.67.02-.98.05-.31.03-.6.1-.88.21v5.79Z"/>
        <path class="cls-2" d="M161,33.77v-17h6v2.47c1.13-1.86,2.97-2.79,5.5-2.79,1.64,0,2.97.47,3.98,1.41s1.52,2.19,1.52,3.76v12.15h-6v-15.81c-.89,0-1.72.26-2.48.78-.76.52-1.38,1.22-1.83,2.08-.46.86-.69,1.81-.69,2.83v10.11h-6ZM163,32.77h2v-14h-2v14ZM174,31.77h2v-10.74c0-.51-.17-1.32-.41-1.77-.42-.79-.95-1.27-1.59-1.44v13.95Z"/>
      </g>
      <rect class="cls-1" width="188" height="44"/>
    </g>
  </g>
</svg>