<?xml version="1.0" encoding="UTF-8"?>
<svg id="_图层_2" data-name="图层 2" xmlns="http://www.w3.org/2000/svg" viewBox="0 0 339 70">
  <defs>
    <style>
      .cls-1 {
        fill: none;
      }

      .cls-1, .cls-2 {
        stroke-width: 0px;
      }

      .cls-2 {
        fill: #fff;
      }
    </style>
  </defs>
  <g id="_图层_1-2" data-name="图层 1">
    <g>
      <g>
        <path class="cls-2" d="M10,59.12V10.12h11v28.38l15.51-13.38h5.15l-12.14,10.47,13.42,23.53h-12.59l-9.28-16.3-.06.06v16.24h-11ZM13,55.12h4V13.12h-4v42ZM32.22,55.12h4.86l-10.3-18.11-3.33,2.88,8.77,15.23Z"/>
        <path class="cls-2" d="M62.56,59.51c-5.29,0-9.46-1.58-12.51-4.74-3.05-3.16-4.58-7.51-4.58-13.06,0-3.63.63-6.77,1.89-9.44,1.26-2.67,3.05-4.73,5.38-6.18,2.33-1.45,5.09-2.18,8.29-2.18,4.44,0,7.85,1.46,10.24,4.38,2.39,2.92,3.58,7.03,3.74,12.32v1.49h-18v13.06c.81.3,1.65.52,2.52.67.87.15,1.77.22,2.71.22,3.36,0,6.95-.85,10.77-2.56v3.75s-6.73,2.24-10.44,2.24ZM54,53.88v-24.77c-3.33,2.56-4.99,6.76-4.99,12.61,0,5.16,1.66,9.22,4.99,12.16ZM57,39.12h14.21c-.21-4.1-1.23-7.14-3.04-9.12s-4.3-2.98-7.46-2.98c-.68,0-1.33.03-1.95.1-.62.06-1.21.2-1.76.42v11.58Z"/>
        <path class="cls-2" d="M97.05,59.51c-5.29,0-9.46-1.58-12.51-4.74-3.05-3.16-4.58-7.51-4.58-13.06,0-3.63.63-6.77,1.89-9.44,1.26-2.67,3.05-4.73,5.38-6.18,2.32-1.45,5.09-2.18,8.29-2.18,4.44,0,7.85,1.46,10.24,4.38,2.39,2.92,3.58,7.03,4.24,12.32v1.49h-18v13.06c.81.3,1.65.52,2.52.67.87.15,1.77.22,2.71.22,3.36,0,6.95-.85,10.77-2.56v3.75s-7.24,2.24-10.95,2.24ZM88,53.88v-24.77c-3.33,2.56-4.99,6.76-4.99,12.61,0,5.16,1.66,9.22,4.99,12.16ZM92,39.12h14.21c-.21-4.1-1.23-7.14-3.04-9.12-1.81-1.98-4.3-2.98-7.46-2.98-.68,0-1.33.03-1.95.1-.62.06-1.21.2-1.76.42v11.58Z"/>
        <path class="cls-2" d="M116,59.12V25.12h11v4.95c2.16-3.72,5.66-5.58,10.5-5.58,3.14,0,5.67.94,7.6,2.82,1.93,1.88,2.9,4.39,2.9,7.52v24.29h-11v-31.62c-1.78,0-3.44.52-4.97,1.57-1.53,1.05-2.75,2.43-3.66,4.16s-1.37,3.62-1.37,5.66v20.22h-11ZM120,56.12h4v-28h-4v28ZM141,55.12h4v-21.57c0-1.49-.39-2.85-1.16-4.06-.78-1.22-1.72-1.97-2.84-2.27v27.9Z"/>
        <path class="cls-2" d="M172.19,59.51c-5.29,0-9.46-1.58-12.51-4.74-3.05-3.16-4.58-7.51-4.58-13.06,0-3.63.63-6.77,1.89-9.44,1.26-2.67,3.05-4.73,5.38-6.18,2.32-1.45,5.09-2.18,8.29-2.18,4.44,0,7.85,1.46,10.24,4.38,2.39,2.92,3.58,7.03,4.11,12.32v1.49h-18v13.06c.81.3,1.65.52,2.52.67.87.15,1.77.22,2.71.22,3.36,0,6.95-.85,10.77-2.56v3.75s-7.1,2.24-10.81,2.24ZM163,53.88v-24.77c-3.33,2.56-4.99,6.76-4.99,12.61,0,5.16,1.66,9.22,4.99,12.16ZM167,39.12h14.21c-.21-4.1-1.23-7.14-3.04-9.12-1.81-1.98-4.3-2.98-7.46-2.98-.68,0-1.33.03-1.95.1-.62.06-1.21.2-1.76.42v11.58Z"/>
        <path class="cls-2" d="M204.72,59.88c-4.92,0-8.78-1.57-11.56-4.7-2.79-3.14-4.18-7.62-4.18-13.46s1.37-10.32,4.11-13.46c2.75-3.14,6.55-4.7,11.43-4.7,3.79,0,7.14.63,10.06,1.89l-1.24,3.27c-2.87-1.35-5.79-2.02-8.75-2.02-.61,0-1.22.03-1.83.1s-1.2.19-1.76.36v29.07c1.26.35,2.5.52,3.72.52,3.35,0,6.45-.74,9.28-2.22v3.46c-2.66,1.26-5.75,1.89-9.28,1.89ZM198,54.26v-25.09c-3.33,2.56-4.99,6.74-4.99,12.54s1.66,10.03,4.99,12.54Z"/>
        <path class="cls-2" d="M222,59.12V10.12h11v19.47c2.16-3.78,5.66-5.67,10.5-5.67,3.14,0,5.67.96,7.61,2.87,1.93,1.91,2.9,4.46,2.9,7.64v24.69h-11v-31.62c-1.83,0-3.49.52-5,1.57-1.51,1.05-2.72,2.43-3.63,4.16s-1.37,3.62-1.37,5.66v20.22h-11ZM225,55.12h4V13.12h-4v42ZM246,55.12h4v-21.57c0-1.49-.39-2.85-1.16-4.06-.78-1.22-1.72-1.97-2.84-2.27v27.9Z"/>
        <path class="cls-2" d="M278.04,59.51c-5.29,0-9.46-1.58-12.51-4.74-3.05-3.16-4.58-7.51-4.58-13.06,0-3.63.63-6.77,1.89-9.44,1.26-2.67,3.05-4.73,5.38-6.18,2.32-1.45,5.09-2.18,8.29-2.18,4.44,0,7.85,1.46,10.24,4.38,2.39,2.92,3.58,7.03,4.26,12.32v1.49h-18v13.06c.81.3,1.65.52,2.52.67.87.15,1.77.22,2.71.22,3.36,0,6.95-.85,10.77-2.56v3.75s-7.25,2.24-10.96,2.24ZM269,53.88v-24.77c-3.33,2.56-4.99,6.76-4.99,12.61,0,5.16,1.66,9.22,4.99,12.16ZM273,39.12h14.21c-.21-4.1-1.23-7.14-3.04-9.12-1.81-1.98-4.3-2.98-7.46-2.98-.68,0-1.33.03-1.95.1-.62.06-1.21.2-1.76.42v11.58Z"/>
        <path class="cls-2" d="M297,59.12V25.12h11v4.95c2.16-3.72,5.66-5.58,10.5-5.58,3.14,0,5.67.94,7.61,2.82,1.93,1.88,2.9,4.39,2.9,7.52v24.29h-11v-31.62c-1.78,0-3.44.52-4.97,1.57-1.53,1.05-2.75,2.43-3.66,4.16s-1.37,3.62-1.37,5.66v20.22h-11ZM301,56.12h4v-28h-4v28ZM322,55.12h4v-21.57c0-1.49-.39-2.85-1.16-4.06-.78-1.22-1.72-1.97-2.84-2.27v27.9Z"/>
      </g>
      <rect class="cls-1" width="339" height="70"/>
    </g>
  </g>
</svg>