<?xml version="1.0" encoding="UTF-8"?>
<svg id="_图层_2" data-name="图层 2" xmlns="http://www.w3.org/2000/svg" viewBox="0 0 384 66">
  <defs>
    <style>
      .cls-1 {
        fill: #ad5554;
      }

      .cls-1, .cls-2 {
        stroke-width: 0px;
      }

      .cls-2 {
        fill: none;
      }
    </style>
  </defs>
  <g id="_图层_1-2" data-name="图层 1">
    <g>
      <g>
        <path class="cls-1" d="M10,56.08V10.08h11v18.62l18.69-18.62h4.77l-15.77,15.78,18.06,30.22h-12.72l-13.04-21.97v21.97h-11ZM13,52.08h4V13.08h-4v39ZM35.87,52.08h5.06l-14.66-24.19-3.14,3.01,12.74,21.18Z"/>
        <path class="cls-1" d="M52,55.08V10.08h28v3h-17v17h14v3h-14v19h17v3h-28ZM55,52.08h4V13.08h-4v39Z"/>
        <path class="cls-1" d="M88,55.08V10.08h28v3h-17v17h14v3h-14v19h17v3h-28ZM91,52.08h4V13.08h-4v39Z"/>
        <path class="cls-1" d="M125,56.08V10.08h4.76l29.24,31.35V10.08h3v46h-4.66l-29.34-31.74v31.74h-3ZM159,52.63v-6.36l-31-33.07v6.42l31,33.01Z"/>
        <path class="cls-1" d="M173,55.08V10.08h28v3h-16v17h14v3h-14v19h16v3h-28ZM177,52.08h4V13.08h-4v39Z"/>
        <path class="cls-1" d="M228.75,55.86c-4.63,0-8.48-.94-11.56-2.81-3.08-1.87-5.39-4.54-6.91-8-1.52-3.46-2.28-7.52-2.28-12.19s.82-8.48,2.47-11.94c1.65-3.46,4.07-6.16,7.28-8.09,3.21-1.94,7.1-2.91,11.69-2.91,2,0,3.97.12,5.91.37,1.94.25,3.91.77,5.91,1.56l-1.63,3.5c-3.33-1.42-6.77-2.12-10.31-2.12-1.79,0-3.47.2-5.03.59-1.56.4-2.99.95-4.28,1.66v35.13c2.58,1.29,5.69,1.94,9.31,1.94,1.71,0,3.48-.13,5.31-.41,1.83-.27,3.63-.63,5.38-1.09v3.69c-1.96.42-3.83.71-5.62.88-1.79.17-3.67.25-5.62.25ZM216,48.6v-30.98c-3.54,3.54-5.31,8.68-5.31,15.42,0,3.37.44,6.37,1.31,8.99.87,2.62,2.21,4.81,4,6.56Z"/>
        <path class="cls-1" d="M251,56.08V10.08h11v20h15V10.08h11v46h-11v-22h-15v22h-11ZM255,52.08h4V13.08h-4v39ZM281,52.08h4V13.08h-4v39Z"/>
        <path class="cls-1" d="M299,55.08V10.08h28v3h-16v17h14v3h-14v19h16v3h-28ZM303,52.08h4V13.08h-4v39Z"/>
        <path class="cls-1" d="M337,56.08V10.08h4.53l29.47,31.35V10.08h3v46h-4.89l-29.11-31.74v31.74h-3ZM371,52.63v-6.36l-31-33.07v6.42l31,33.01Z"/>
      </g>
      <rect class="cls-2" width="384" height="66"/>
    </g>
  </g>
</svg>