<?xml version="1.0" encoding="UTF-8"?>
<svg id="_图层_2" data-name="图层 2" xmlns="http://www.w3.org/2000/svg" viewBox="0 0 354 70">
  <defs>
    <style>
      :root {
        --k-color: #B55756;
        --k-width: 0.5px;
        --k-length: 1000;
        --k-delay: 10s;
      }

      .cls-1 {
        fill: var(--k-color);
        fill-opacity: 0;
        stroke: var(--k-color);
        stroke-width: var(--k-width);
        stroke-dasharray: 0 var(--k-length);
        animation: draw var(--k-delay) infinite;
      }

      .cls-2 {
        fill: none;
      }

      @keyframes draw {
        to {
          stroke-dasharray: var(--k-length) 0;
          fill-opacity: 1;
        }
      }
    </style>
  </defs>
  <g id="_图层_1-2" data-name="图层 1">
    <g>
      <g>
        <path class="cls-1"
          d="M10,59.12V13.12h11v18.62l18.69-18.62h4.77l-15.77,15.78,18.06,30.22h-12.72l-13.03-21.97v21.97h-11ZM13,56.12h4V17.12h-4v39ZM35.87,56.12h5.05l-14.66-24.19-3.14,3.01,12.74,21.18Z" />
        <path class="cls-1"
          d="M66.53,59.88c-5.29,0-9.46-1.58-12.51-4.74-3.05-3.16-4.58-7.51-4.58-13.06,0-3.63.63-6.77,1.89-9.44,1.26-2.67,3.05-4.73,5.38-6.18,2.32-1.45,5.09-2.18,8.29-2.18,4.44,0,7.85,1.46,10.24,4.38,2.39,2.92,3.58,7.03,3.77,12.32v2.13h-18v13.06c.81.3,1.65.52,2.52.67.87.15,1.77.22,2.71.22,3.36,0,6.95-.85,10.77-2.56v3.12s-6.76,2.24-10.47,2.24ZM58,54.24v-24.77c-3.33,2.56-4.99,6.76-4.99,12.61,0,5.16,1.66,9.22,4.99,12.16ZM61,39.12h14.21c-.21-4.1-1.23-7.14-3.04-9.12-1.81-1.98-4.3-2.98-7.46-2.98-.68,0-1.33.03-1.95.1-.62.06-1.21.2-1.76.42v11.58Z" />
        <path class="cls-1"
          d="M101.02,59.88c-5.29,0-9.46-1.58-12.51-4.74-3.05-3.16-4.58-7.51-4.58-13.06,0-3.63.63-6.77,1.89-9.44,1.26-2.67,3.05-4.73,5.38-6.18,2.33-1.45,5.09-2.18,8.29-2.18,4.44,0,7.85,1.46,10.24,4.38,2.39,2.92,3.58,7.03,4.27,12.32v2.13h-18v13.06c.81.3,1.65.52,2.52.67.87.15,1.77.22,2.71.22,3.36,0,6.95-.85,10.77-2.56v3.12s-7.27,2.24-10.98,2.24ZM92,54.24v-24.77c-3.33,2.56-4.99,6.76-4.99,12.61,0,5.16,1.66,9.22,4.99,12.16ZM96,39.12h14.21c-.21-4.1-1.23-7.14-3.04-9.12s-4.3-2.98-7.46-2.98c-.68,0-1.33.03-1.95.1-.62.06-1.21.2-1.76.42v11.58Z" />
        <path class="cls-1"
          d="M120,59.12V25.12h11v4.95c2.16-3.72,5.66-5.58,10.5-5.58,3.14,0,5.67.94,7.6,2.82,1.93,1.88,2.9,4.39,2.9,7.52v24.29h-11v-31.62c-1.78,0-3.44.52-4.97,1.57-1.53,1.05-2.75,2.43-3.66,4.16-.91,1.73-1.37,3.62-1.37,5.66v20.22h-11ZM124,56.12h4v-28h-4v28ZM145,56.12h4v-21.57c0-1.49-.39-2.85-1.16-4.06-.78-1.22-1.72-1.97-2.84-2.27v27.9Z" />
        <path class="cls-1"
          d="M176.16,59.88c-5.29,0-9.46-1.58-12.51-4.74-3.05-3.16-4.58-7.51-4.58-13.06,0-3.63.63-6.77,1.89-9.44,1.26-2.67,3.05-4.73,5.38-6.18,2.33-1.45,5.09-2.18,8.29-2.18,4.44,0,7.85,1.46,10.24,4.38,2.39,2.92,3.58,7.03,4.14,12.32v2.13h-18v13.06c.81.3,1.65.52,2.52.67.87.15,1.77.22,2.71.22,3.36,0,6.95-.85,10.77-2.56v3.12s-7.13,2.24-10.84,2.24ZM167,54.24v-24.77c-3.33,2.56-4.99,6.76-4.99,12.61,0,5.16,1.66,9.22,4.99,12.16ZM171,39.12h14.21c-.21-4.1-1.23-7.14-3.04-9.12-1.81-1.98-4.3-2.98-7.46-2.98-.68,0-1.33.03-1.95.1s-1.21.2-1.76.42v11.58Z" />
        <path class="cls-1"
          d="M215.75,59.33c-4.63,0-8.48-.94-11.56-2.81-3.08-1.88-5.39-4.54-6.91-8-1.52-3.46-2.28-7.52-2.28-12.19s.82-8.48,2.47-11.94c1.65-3.46,4.07-6.16,7.28-8.09,3.21-1.94,7.1-2.91,11.69-2.91,2,0,3.97.12,5.91.37,1.94.25,3.91.77,5.91,1.56l-1.63,3.5c-3.33-1.42-6.77-2.12-10.31-2.12-1.79,0-3.47.2-5.03.59-1.56.4-2.99.95-4.28,1.66v35.13c2.58,1.29,5.69,1.94,9.31,1.94,1.71,0,3.48-.13,5.31-.41,1.83-.27,3.63-.63,5.38-1.09v3.69c-1.96.42-3.83.71-5.63.88-1.79.17-3.67.25-5.63.25ZM203,52.07v-30.98c-3.54,3.54-5.31,8.68-5.31,15.42,0,3.37.44,6.37,1.31,8.99.87,2.62,2.21,4.81,4,6.56Z" />
        <path class="cls-1"
          d="M236,59.12V10.12h11v19.47c2.16-3.78,5.66-5.67,10.5-5.67,3.14,0,5.67.96,7.6,2.87,1.93,1.91,2.9,4.46,2.9,7.64v24.69h-11v-31.62c-1.83,0-3.49.52-5,1.57-1.51,1.05-2.72,2.43-3.63,4.16-.91,1.73-1.37,3.62-1.37,5.66v20.22h-11ZM240,56.12h4V14.12h-4v42ZM261,56.12h4v-21.57c0-1.49-.39-2.85-1.16-4.06-.78-1.22-1.72-1.97-2.84-2.27v27.9Z" />
        <path class="cls-1"
          d="M292.76,59.88c-5.29,0-9.46-1.58-12.51-4.74-3.05-3.16-4.58-7.51-4.58-13.06,0-3.63.63-6.77,1.89-9.44,1.26-2.67,3.05-4.73,5.38-6.18,2.33-1.45,5.09-2.18,8.29-2.18,4.44,0,7.85,1.46,10.24,4.38,2.39,2.92,3.58,7.03,3.54,12.32v2.13h-18v13.06c.81.3,1.65.52,2.52.67.87.15,1.77.22,2.71.22,3.36,0,6.95-.85,10.77-2.56v3.12s-6.53,2.24-10.24,2.24ZM284,54.24v-24.77c-3.33,2.56-4.99,6.76-4.99,12.61,0,5.16,1.66,9.22,4.99,12.16ZM287,39.12h14.21c-.21-4.1-1.23-7.14-3.04-9.12-1.81-1.98-4.3-2.98-7.46-2.98-.68,0-1.33.03-1.95.1s-1.21.2-1.76.42v11.58Z" />
        <path class="cls-1"
          d="M312,59.12V25.12h11v4.95c2.16-3.72,5.66-5.58,10.5-5.58,3.14,0,5.67.94,7.6,2.82,1.93,1.88,2.9,4.39,2.9,7.52v24.29h-11v-31.62c-1.78,0-3.44.52-4.97,1.57-1.53,1.05-2.75,2.43-3.66,4.16-.91,1.73-1.37,3.62-1.37,5.66v20.22h-11ZM315,56.12h4v-28h-4v28ZM337,56.12h4v-21.57c0-1.49-.39-2.85-1.16-4.06-.78-1.22-1.72-1.97-2.84-2.27v27.9Z" />
      </g>
      <rect class="cls-2" width="354" height="70" />
    </g>
  </g>
</svg>