<?xml version="1.0" encoding="UTF-8"?>
<svg id="_图层_2" data-name="图层 2" xmlns="http://www.w3.org/2000/svg" viewBox="0 0 659 110">
  <defs>
    <style>
      :root {
        --k-color: #B55756;
        --k-width: 1px;
        --k-length: 1000;
        --k-delay: 10s;
      }

      .cls-1 {
        fill: var(--k-color);
        fill-opacity: 0;
        stroke: var(--k-color);
        stroke-width: var(--k-width);
        stroke-dasharray: 0 var(--k-length);
        animation: draw var(--k-delay) infinite;
      }

      .cls-2 {
        fill: none;
      }

      @keyframes draw {
        to {
          stroke-dasharray: var(--k-length) 0;
          fill-opacity: 1;
        }
      }
    </style>
  </defs>
  <g id="_图层_1-2" data-name="图层 1">
    <g>
      <g>
        <path class="cls-1"
          d="M10,103.48V5.48h22v56.16l31.03-27.16h10.3l-24.29,21.24,26.83,47.76h-25.18l-18.57-33.08-.13.13v32.96H10ZM16,96.48h9V12.48h-9v84ZM54.49,96.48h9.73l-20.61-36.22-6.66,5.76,17.54,30.46Z" />
        <path class="cls-1"
          d="M116,104.52c-10.33,0-18.48-3.16-24.43-9.47-5.96-6.31-8.94-15.02-8.94-26.11,0-7.25,1.23-13.55,3.69-18.88,2.46-5.33,5.96-9.45,10.5-12.35,4.54-2.9,9.94-4.35,16.19-4.35,8.67,0,15.33,2.92,20,8.77,4.66,5.85,7,14.06,7,24.64v3.71h-35v26.11c1.61.6,3.29,1.05,5.04,1.34,1.74.3,3.55.45,5.42.45,6.71,0,13.9-1.71,21.55-5.12v6.78c-6.75,2.99-13.75,4.48-21,4.48ZM98,92.91v-49.54c-6.66,5.12-9.98,13.53-9.98,25.22,0,10.33,3.33,18.43,9.98,24.32ZM105,63.48h28.42c-.43-8.19-2.45-14.27-6.08-18.24-3.63-3.97-8.6-5.95-14.91-5.95-1.37,0-2.67.06-3.9.19-1.24.13-2.41.41-3.52.83v23.17Z" />
        <path class="cls-1"
          d="M185,104.52c-10.33,0-18.48-3.16-24.43-9.47-5.96-6.31-8.94-15.02-8.94-26.11,0-7.25,1.23-13.55,3.69-18.88,2.46-5.33,5.96-9.45,10.5-12.35,4.54-2.9,9.94-4.35,16.19-4.35,8.66,0,15.33,2.92,20,8.77,4.66,5.85,7,14.06,7,24.64v3.71h-35v26.11c1.61.6,3.29,1.05,5.04,1.34,1.74.3,3.55.45,5.42.45,6.71,0,13.9-1.71,21.55-5.12v6.78c-6.75,2.99-13.75,4.48-21,4.48ZM167,92.91v-49.54c-6.66,5.12-9.98,13.53-9.98,25.22,0,10.33,3.33,18.43,9.98,24.32ZM174,63.48h28.42c-.43-8.19-2.45-14.27-6.08-18.24s-8.6-5.95-14.91-5.95c-1.37,0-2.67.06-3.9.19-1.24.13-2.41.41-3.52.83v23.17Z" />
        <path class="cls-1"
          d="M222,103.48V34.48h23v10.04c4.33-7.55,11.33-11.33,21-11.33,6.28,0,11.35,1.91,15.21,5.73,3.86,3.82,5.79,8.9,5.79,15.25v49.3h-22v-63.23c-3.75,0-7.22,1.05-10.43,3.14-3.21,2.09-5.77,4.86-7.69,8.32-1.92,3.46-2.88,7.23-2.88,11.33v40.45h-22ZM229,96.48h9v-55h-9v55ZM271,96.48h9v-43.14c0-2.99-.87-5.7-2.62-8.13-1.75-2.43-3.87-3.95-6.38-4.54v55.81Z" />
        <path class="cls-1"
          d="M335,104.52c-10.33,0-18.48-3.16-24.43-9.47-5.96-6.31-8.94-15.02-8.94-26.11,0-7.25,1.23-13.55,3.69-18.88,2.46-5.33,5.96-9.45,10.5-12.35,4.54-2.9,9.94-4.35,16.19-4.35,8.66,0,15.33,2.92,20,8.77,4.66,5.85,7,14.06,7,24.64v3.71h-35v26.11c1.61.6,3.29,1.05,5.04,1.34,1.74.3,3.55.45,5.42.45,6.71,0,13.9-1.71,21.55-5.12v6.78c-6.75,2.99-13.75,4.48-21,4.48ZM317,92.91v-49.54c-6.66,5.12-9.98,13.53-9.98,25.22,0,10.33,3.33,18.43,9.98,24.32ZM324,63.48h28.42c-.43-8.19-2.45-14.27-6.08-18.24s-8.6-5.95-14.91-5.95c-1.37,0-2.67.06-3.9.19-1.24.13-2.41.41-3.52.83v23.17Z" />
        <path class="cls-1"
          d="M400.16,103.51c-9.47,0-16.88-3.02-22.24-9.04-5.36-6.03-8.04-14.66-8.04-25.88s2.64-19.85,7.91-25.88c5.28-6.03,12.61-9.04,21.98-9.04,7.29,0,13.73,1.22,19.35,3.64l-2.39,6.28c-5.53-2.6-11.14-3.9-16.83-3.9-1.18,0-2.35.06-3.52.19-1.18.13-2.3.36-3.39.69v55.9c2.43.67,4.82,1.01,7.16,1.01,6.45,0,12.39-1.42,17.84-4.27v6.66c-5.11,2.43-11.05,3.64-17.84,3.64ZM386,93.68v-50.18c-6.66,5.12-9.98,13.48-9.98,25.09s3.33,20.05,9.98,25.09Z" />
        <path class="cls-1"
          d="M433,102.48V5.48h22v38.54c4.33-7.49,11.33-11.23,21-11.23,6.28,0,11.35,1.89,15.21,5.68,3.86,3.79,5.79,8.83,5.79,15.12v48.88h-22v-63.23c-3.65,0-6.99,1.05-10,3.14-3.02,2.09-5.44,4.86-7.26,8.32-1.83,3.46-2.74,7.23-2.74,11.33v40.45h-22ZM440,96.48h9V12.48h-9v84ZM482,96.48h9v-43.14c0-2.99-.87-5.7-2.62-8.13-1.75-2.43-3.88-3.95-6.38-4.54v55.81Z" />
        <path class="cls-1"
          d="M547,104.52c-10.33,0-18.48-3.16-24.43-9.47-5.96-6.31-8.94-15.02-8.94-26.11,0-7.25,1.23-13.55,3.69-18.88,2.46-5.33,5.96-9.45,10.5-12.35,4.54-2.9,9.94-4.35,16.19-4.35,8.66,0,15.33,2.92,20,8.77,4.66,5.85,7,14.06,7,24.64v3.71h-35v26.11c1.61.6,3.29,1.05,5.04,1.34,1.74.3,3.55.45,5.42.45,6.71,0,13.9-1.71,21.55-5.12v6.78c-6.75,2.99-13.75,4.48-21,4.48ZM529,92.91v-49.54c-6.66,5.12-9.98,13.53-9.98,25.22,0,10.33,3.33,18.43,9.98,24.32ZM535,63.48h28.42c-.43-8.19-2.45-14.27-6.08-18.24s-8.6-5.95-14.91-5.95c-1.37,0-2.67.06-3.9.19-1.24.13-2.41.41-3.52.83v23.17Z" />
        <path class="cls-1"
          d="M584,103.48V34.48h23v10.04c4.33-7.55,11.33-11.33,21-11.33,6.28,0,11.35,1.91,15.21,5.73,3.86,3.82,5.79,8.9,5.79,15.25v49.3h-22v-63.23c-3.75,0-7.22,1.05-10.43,3.14-3.21,2.09-5.77,4.86-7.69,8.32-1.92,3.46-2.88,7.23-2.88,11.33v40.45h-22ZM591,96.48h9v-55h-9v55ZM633,96.48h9v-43.14c0-2.99-.87-5.7-2.62-8.13-1.75-2.43-3.87-3.95-6.38-4.54v55.81Z" />
      </g>
      <rect class="cls-2" width="659" height="110" />
    </g>
  </g>
</svg>