<?xml version="1.0" encoding="UTF-8"?>
<svg id="_图层_2" data-name="图层 2" xmlns="http://www.w3.org/2000/svg" viewBox="0 0 200 200">
  <defs>
    <style>
      .cls-1 {
        fill: #fff;
      }

      .cls-1, .cls-2 {
        stroke-width: 0px;
      }

      .cls-2 {
        fill: #b55756;
      }
    </style>
  </defs>
  <g id="_图层_1-2" data-name="图层 1">
    <g id="keenechen">
      <path class="cls-1" d="M200,100c-.89,13.14.37,27.4-2.42,41.29-2.51,13.82-9.06,27.26-19.11,37.2-9.94,10.05-23.37,16.6-37.19,19.1-13.88,2.78-28.14,1.52-41.29,2.41-13.14-.89-27.4.37-41.29-2.42-13.82-2.51-27.26-9.06-37.2-19.11-10.05-9.94-16.6-23.37-19.1-37.19-2.78-13.88-1.52-28.14-2.41-41.29.89-13.14-.37-27.4,2.42-41.29,2.51-13.82,9.06-27.26,19.11-37.2C31.47,11.47,44.9,4.92,58.71,2.41c13.88-2.78,28.14-1.52,41.29-2.41,13.14.89,27.4-.37,41.29,2.42,13.82,2.51,27.26,9.06,37.2,19.11,10.05,9.94,16.6,23.37,19.1,37.19,2.78,13.88,1.52,28.14,2.41,41.29Z"/>
      <path class="cls-2" d="M168.41,173.48l-58.68-96.54,51.03-50.23c.29-.28.38-.71.22-1.09-.15-.37-.52-.62-.93-.62h-15.6c-.26,0-.52.1-.7.29l-59.47,58.24V26c0-.55-.45-1-1-1h-36c-.55,0-1,.45-1,1v148c0,.55.45,1,1,1h36c.55,0,1-.45,1-1v-67.09l40.79,67.6c.18.3.51.48.86.48h41.62c.36,0,.7-.19.87-.51s.17-.7-.02-1.01ZM59.29,162V38h12v124h-12ZM131.86,162l-40.61-67.55,8.7-8.34,45.98,75.89h-14.06Z"/>
    </g>
  </g>
</svg>