<?xml version="1.0" encoding="UTF-8"?>
<svg id="_图层_2" data-name="图层 2" xmlns="http://www.w3.org/2000/svg" viewBox="0 0 141.2 23.61">
  <defs>
    <style>
      .cls-1 {
        fill: #b55756;
        stroke-width: 0px;
      }
    </style>
  </defs>
  <g id="Dimensions">
    <g>
      <path class="cls-1"
        d="M12.48,0l.58.38c-.32.34-.68.69-1.06,1.04-.39.35-.79.66-1.22.95s-.88.51-1.36.69c-.48.18-.97.27-1.48.27-.23,0-.47-.02-.73-.05s-.52-.07-.78-.12c-.27-.05-.53-.11-.8-.18-.27-.07-.53-.14-.79-.21-.25-.07-.5-.14-.73-.21-.23-.07-.45-.13-.65-.18-.2-.05-.37-.09-.52-.12-.15-.03-.27-.04-.37-.04-.23,0-.46.04-.7.12-.24.08-.45.2-.64.36s-.34.35-.45.59c-.11.24-.16.52-.12.83.02.2.05.39.09.56.04.18.11.35.2.52.09.17.21.32.38.47.16.15.37.29.63.42l-.19.39c-.11-.04-.27-.1-.46-.19-.19-.08-.39-.21-.58-.39-.19-.18-.36-.41-.5-.7-.14-.29-.21-.67-.21-1.12,0-.22.03-.44.1-.67.07-.23.17-.46.3-.69.13-.23.29-.46.47-.68.18-.22.38-.43.6-.63.22-.2.45-.38.7-.54.25-.16.51-.3.77-.42.27-.12.54-.21.82-.27.28-.06.56-.08.83-.07.46.02.9.08,1.34.17s.87.2,1.3.32c.44.12.88.24,1.34.37s.92.22,1.41.3c.02,0,.06,0,.12-.02.06,0,.15-.03.26-.05.11-.03.23-.06.36-.09.13-.04.27-.08.41-.13.14-.05.28-.11.42-.18.14-.07.27-.14.39-.22s.23-.16.33-.26.17-.19.21-.3ZM8.83,5.03c-.04.12-.1.27-.16.47-.07.2-.13.41-.2.63-.06.22-.11.44-.16.65-.04.21-.06.38-.06.52v8.58c0,.35-.07.69-.21,1.02-.14.32-.33.62-.57.88-.24.26-.51.49-.82.7s-.63.37-.96.49c-.04.02-.09.05-.15.08s-.11.06-.17.09-.11.06-.17.08c-.06.02-.11.03-.16.03-.07,0-.11-.04-.1-.12s.03-.15.07-.21c.08-.13.16-.29.22-.46s.11-.34.16-.51c.04-.17.07-.33.09-.48.02-.15.03-.28.03-.4l.03-4.94h-1.41c-.15,0-.29.03-.42.09s-.26.15-.38.26-.22.24-.3.38c-.08.15-.15.3-.19.47-.01.06-.03.13-.05.21s-.05.15-.08.22c-.03.07-.07.12-.11.17s-.09.07-.16.05c-.08-.02-.15-.06-.2-.12-.05-.06-.09-.12-.12-.2s-.07-.16-.09-.25c-.02-.09-.04-.17-.05-.24-.04-.18-.05-.36-.03-.55s.03-.38.03-.56c0-.34.08-.64.23-.88.15-.24.35-.44.59-.59.24-.15.5-.26.78-.33.28-.07.55-.1.8-.1h1.16l-.03-1.7c0-.53.07-.99.2-1.39.14-.4.33-.74.58-1.03.25-.29.55-.54.91-.75.36-.21.76-.39,1.2-.55.06-.03.14-.07.22-.11.08-.04.16-.04.22,0,.06.04.09.1.07.19-.02.08-.04.16-.07.22ZM2.02,23.61c.42-.71.94-1.33,1.56-1.86s1.32-.98,2.09-1.34c.77-.36,1.59-.64,2.48-.82.89-.18,1.79-.27,2.72-.26.75.01,1.5.09,2.24.24.75.15,1.47.37,2.16.65v-10.44l-2.33,1.67v3.59c0,.38-.09.72-.26,1.04-.17.32-.4.61-.7.88s-.63.51-1.02.72c-.39.21-.79.41-1.2.59-.02.01-.05.01-.09,0-.04,0-.07-.03-.1-.05-.03-.02-.05-.05-.07-.08s-.02-.06,0-.09c.06-.12.13-.26.21-.41.08-.15.15-.29.22-.44.07-.15.12-.3.16-.45s.06-.31.06-.47V6.06c0-.42.09-.82.27-1.21s.41-.77.71-1.13c.3-.36.64-.71,1.03-1.02.39-.32.8-.61,1.23-.89.43-.28.87-.52,1.32-.74s.88-.4,1.3-.55c.42-.15.8-.27,1.15-.35.35-.08.64-.12.88-.12.33,0,.65.03.96.09s.61.16.91.28.6.28.9.47.61.41.93.66l1.67-1.14.44.34-4.62,3.23c-.21-.35-.42-.7-.65-1.02s-.47-.62-.73-.87-.54-.45-.84-.59c-.3-.15-.62-.22-.96-.22-.35.01-.72.1-1.09.27-.38.17-.72.38-1.02.64-.31.26-.56.56-.76.9-.2.34-.3.69-.3,1.04v6.64l2.34-1.64v-3.98h.83v3.45l3.17-2.3,4.19,4.11-4.14,3.02c.57.46,1.08.96,1.52,1.5.44.54.84,1.11,1.2,1.71.36.6.71,1.22,1.02,1.85.32.64.64,1.28.98,1.92l1.55-1.02.39.45-4.09,3.03c-.19-.33-.37-.69-.55-1.06s-.35-.77-.52-1.17-.33-.81-.5-1.22-.33-.81-.49-1.2c-.16-.4-.33-.78-.5-1.14-.17-.36-.35-.7-.52-1.02s-.36-.59-.55-.84c-.19-.24-.39-.45-.6-.62l-1.59,1.2v4.64l1.55-1.06.7.41-4.14,3.03c-.46-.16-.95-.33-1.47-.51s-1.06-.35-1.61-.52c-.55-.16-1.11-.29-1.68-.38s-1.13-.12-1.68-.08c-.46.03-.89.07-1.3.12-.41.05-.82.15-1.22.3-.4.15-.8.37-1.21.66s-.83.68-1.28,1.2h-.66ZM15.95,9.28v5.72l4.92-3.58-3.3-3.23-1.62,1.09Z" />
      <path class="cls-1"
        d="M28,12.73l-1.05-.12.14-.64c.65.03,1.26,0,1.85-.09.59-.09,1.16-.22,1.71-.4.55-.18,1.09-.39,1.62-.63.53-.24,1.07-.5,1.61-.77l3.36,4.16-6.8,3.67v1.75l2.75,1.42,3.27-1.75.36.48-5.56,2.94-4.08-1.92-1.27.67-.23-.42,2.31-1.45v-6.89ZM30.42,17.16l4.47-2.38-2.59-3.17c-.27.12-.56.23-.88.34s-.65.21-1,.3v4.91Z" />
      <path class="cls-1"
        d="M39.72,12.73l-1.05-.12.14-.64c.65.03,1.26,0,1.85-.09.59-.09,1.16-.22,1.71-.4.55-.18,1.09-.39,1.62-.63.53-.24,1.07-.5,1.61-.77l3.36,4.16-6.8,3.67v1.75l2.75,1.42,3.27-1.75.36.48-5.56,2.94-4.08-1.92-1.27.67-.23-.42,2.31-1.45v-6.89ZM42.14,17.16l4.47-2.38-2.59-3.17c-.27.12-.56.23-.88.34s-.65.21-1,.3v4.91Z" />
      <path class="cls-1"
        d="M52.38,10.03c.12.1.29.24.49.41.2.17.4.35.6.55s.37.42.52.66.22.47.22.71v1.56l5.25-3.81,2.92,2.03,1.94-1.09.25.38-2.77,1.72v6.83l1.09,1.03,1.03-.64.36.36-3.03,2.08-2.09-1.77.2-1.06v-6.92l-1.55-1.03-3.56,2.58v5.34l1.08.78,1.06-.62.33.42-3.41,2.28-2.31-1.59-1.09.58-.23-.42,2.16-1.45v-6.92l-1.12-.94-1.28.7-.28-.39,3.23-2.33Z" />
      <path class="cls-1"
        d="M67.06,12.73l-1.05-.12.14-.64c.65.03,1.26,0,1.85-.09.59-.09,1.16-.22,1.71-.4.55-.18,1.09-.39,1.62-.63.53-.24,1.07-.5,1.61-.77l3.36,4.16-6.8,3.67v1.75l2.75,1.42,3.27-1.75.36.48-5.56,2.94-4.08-1.92-1.27.67-.23-.42,2.31-1.45v-6.89ZM69.48,17.16l4.47-2.38-2.59-3.17c-.27.12-.56.23-.88.34s-.65.21-1,.3v4.91Z" />
      <path class="cls-1"
        d="M91.91.08c.19.14.39.28.6.42.21.15.44.28.67.4.23.12.47.22.72.3.25.08.49.12.74.12.26.01.52-.02.77-.09.25-.07.5-.16.74-.27s.48-.23.7-.38.42-.28.59-.43l.33.19c-.23.39-.46.75-.7,1.09s-.51.65-.8.92c-.3.27-.64.5-1.02.7-.39.19-.84.34-1.36.43v16.86c.45-.2.86-.4,1.25-.6s.76-.41,1.12-.63.72-.45,1.08-.7c.35-.24.72-.5,1.11-.77l.48.38c-.24.29-.52.59-.85.88s-.69.59-1.09.88c-.4.29-.82.58-1.28.86s-.93.54-1.42.78c-.49.24-.99.45-1.51.64s-1.03.34-1.55.47-1.04.21-1.55.26-1.01.04-1.49,0c-1.07-.12-2.04-.28-2.91-.49s-1.64-.47-2.34-.78c-.69-.31-1.3-.66-1.84-1.05s-1-.81-1.39-1.27c-.4-.46-.73-.95-1.01-1.46s-.5-1.05-.69-1.61c-.18-.56-.32-1.13-.42-1.73s-.17-1.2-.23-1.83c-.04-.6-.02-1.21.05-1.82s.21-1.21.41-1.8.44-1.18.73-1.75c.3-.57.63-1.12,1.01-1.66s.79-1.04,1.25-1.52c.46-.48.95-.92,1.46-1.34.52-.41,1.05-.78,1.62-1.11s1.14-.61,1.73-.84l.23.34c-1.1.69-2.01,1.4-2.71,2.13s-1.26,1.5-1.67,2.28c-.41.79-.7,1.61-.86,2.46-.16.85-.25,1.75-.27,2.67-.02.72.01,1.42.1,2.09.09.68.23,1.32.44,1.93s.46,1.19.77,1.73c.31.54.68,1.04,1.1,1.5.42.46.9.87,1.43,1.23s1.12.66,1.76.91,1.34.44,2.09.57c.75.13,1.57.19,2.43.18.45,0,.89-.04,1.33-.11.44-.07.88-.13,1.31-.17V3.5c-.27-.02-.55-.05-.85-.1s-.59-.11-.88-.2c-.29-.08-.57-.18-.84-.3-.27-.12-.52-.27-.75-.46l-1.39.88v11.16c0,.42-.08.82-.23,1.2-.15.39-.37.74-.66,1.05-.29.32-.66.59-1.09.83s-.94.41-1.52.52c-.03.01-.06,0-.09-.02-.03-.03-.05-.06-.06-.09-.02-.04-.02-.08-.02-.12s0-.07.02-.09c.1-.15.21-.3.3-.47.1-.17.19-.34.27-.52.08-.18.15-.36.21-.54.06-.18.09-.37.09-.55V5.39l-3.08,2.08-.28-.53L91.91.08Z" />
      <path class="cls-1"
        d="M100.91,2c.32.37.61.72.87,1.08.25.35.5.72.74,1.09.16-.25.32-.5.48-.76.17-.25.34-.5.52-.73s.36-.46.55-.68.39-.42.61-.61l.52.17c-.17.26-.34.55-.52.86s-.34.64-.48.98c-.14.34-.25.69-.34,1.05s-.13.72-.13,1.07v8.11l5.92-3.56,2.34,1.69.91-.64.34.34-1.77,1.44v7.08l1.08,1.03,1.08-.67.36.42-3.02,2.05-2.08-1.8.16-.81v-7.52l-1.3-.78-3.98,2.42v5.59l1.03.78,1.09-.64.25.42-3.42,2.25-2.28-1.59-1.05.73-.28-.47,2.14-1.56V4.73c0-.22-.03-.43-.08-.65-.05-.21-.12-.42-.2-.63-.08-.21-.16-.41-.24-.62s-.16-.41-.22-.62l.39-.22Z" />
      <path class="cls-1"
        d="M116.36,12.73l-1.05-.12.14-.64c.65.03,1.26,0,1.85-.09.59-.09,1.16-.22,1.71-.4.55-.18,1.09-.39,1.62-.63.53-.24,1.07-.5,1.61-.77l3.36,4.16-6.8,3.67v1.75l2.75,1.42,3.27-1.75.36.48-5.56,2.94-4.08-1.92-1.27.67-.23-.42,2.31-1.45v-6.89ZM118.78,17.16l4.47-2.38-2.59-3.17c-.27.12-.56.23-.88.34s-.65.21-1,.3v4.91Z" />
      <path class="cls-1"
        d="M129.02,10.03c.12.1.29.24.49.41.2.17.4.35.6.55s.37.42.52.66.22.47.22.71v1.56l5.25-3.81,2.92,2.03,1.94-1.09.25.38-2.77,1.72v6.83l1.09,1.03,1.03-.64.36.36-3.03,2.08-2.09-1.77.2-1.06v-6.92l-1.55-1.03-3.56,2.58v5.34l1.08.78,1.06-.62.33.42-3.41,2.28-2.31-1.59-1.09.58-.23-.42,2.16-1.45v-6.92l-1.12-.94-1.28.7-.28-.39,3.23-2.33Z" />
    </g>
  </g>
</svg>