<?xml version="1.0" encoding="UTF-8"?>
<svg id="_图层_2" data-name="图层 2" xmlns="http://www.w3.org/2000/svg" viewBox="0 0 564.81 94.44">
  <defs>
    <style>
      .cls-1 {
        fill: #b55756;
        stroke-width: 0px;
      }
    </style>
  </defs>
  <g id="Dimensions">
    <g>
      <path class="cls-1"
        d="M49.94,0l2.31,1.5c-1.29,1.38-2.71,2.76-4.25,4.16-1.54,1.4-3.17,2.66-4.88,3.78-1.71,1.12-3.52,2.04-5.44,2.75-1.92.71-3.9,1.06-5.94,1.06-.92,0-1.89-.06-2.91-.19-1.02-.12-2.06-.29-3.12-.5-1.06-.21-2.14-.45-3.22-.72-1.08-.27-2.14-.55-3.16-.84-1.02-.29-2-.57-2.94-.84-.94-.27-1.8-.51-2.59-.72-.79-.21-1.49-.36-2.09-.47-.6-.1-1.09-.16-1.47-.16-.92,0-1.85.17-2.81.5-.96.33-1.81.81-2.56,1.44s-1.35,1.42-1.81,2.38c-.46.96-.62,2.06-.5,3.31.08.79.21,1.54.38,2.25.17.71.43,1.4.78,2.06.35.67.85,1.29,1.5,1.88.65.58,1.49,1.15,2.53,1.69l-.75,1.56c-.46-.17-1.07-.42-1.84-.75-.77-.33-1.54-.85-2.31-1.56-.77-.71-1.44-1.65-2-2.81-.56-1.17-.84-2.67-.84-4.5,0-.88.13-1.77.41-2.69.27-.92.67-1.83,1.19-2.75.52-.92,1.15-1.82,1.88-2.72.73-.9,1.53-1.74,2.41-2.53.88-.79,1.81-1.51,2.81-2.16,1-.65,2.03-1.21,3.09-1.69,1.06-.48,2.16-.83,3.28-1.06,1.12-.23,2.23-.32,3.31-.28,1.83.08,3.61.31,5.34.69,1.73.38,3.47.8,5.22,1.28,1.75.48,3.53.97,5.34,1.47s3.7.9,5.66,1.19c.08,0,.25-.02.5-.06.25-.04.59-.11,1.03-.22.44-.1.92-.23,1.44-.38.52-.15,1.06-.32,1.62-.53.56-.21,1.12-.45,1.69-.72.56-.27,1.08-.56,1.56-.88.48-.31.92-.66,1.31-1.03.4-.38.68-.77.84-1.19ZM35.31,20.12c-.17.46-.39,1.08-.66,1.88-.27.79-.53,1.64-.78,2.53-.25.9-.46,1.76-.62,2.59-.17.83-.25,1.52-.25,2.06v34.31c0,1.42-.28,2.77-.84,4.06-.56,1.29-1.32,2.46-2.28,3.5-.96,1.04-2.05,1.97-3.28,2.78-1.23.81-2.51,1.47-3.84,1.97-.17.08-.37.19-.59.31-.23.12-.46.25-.69.38-.23.12-.46.23-.69.31-.23.08-.45.12-.66.12-.29,0-.43-.16-.41-.47.02-.31.11-.59.28-.84.33-.54.62-1.16.88-1.84s.46-1.36.62-2.03c.17-.67.29-1.3.38-1.91.08-.6.12-1.13.12-1.59l.12-19.75h-5.62c-.58,0-1.15.12-1.69.38-.54.25-1.05.59-1.53,1.03-.48.44-.89.95-1.22,1.53-.33.58-.58,1.21-.75,1.88-.04.25-.1.53-.19.84-.08.31-.19.6-.31.88-.12.27-.27.5-.44.69-.17.19-.38.26-.62.22-.33-.08-.59-.24-.78-.47-.19-.23-.35-.5-.5-.81-.15-.31-.26-.65-.34-1-.08-.35-.15-.68-.19-.97-.17-.71-.21-1.44-.12-2.19.08-.75.12-1.5.12-2.25,0-1.38.3-2.55.91-3.53.6-.98,1.38-1.77,2.34-2.38.96-.6,2-1.04,3.12-1.31,1.12-.27,2.19-.41,3.19-.41h4.62l-.12-6.81c0-2.12.27-3.98.81-5.56.54-1.58,1.31-2.96,2.31-4.12,1-1.17,2.22-2.17,3.66-3,1.44-.83,3.03-1.56,4.78-2.19l.88-.44c.33-.17.62-.17.88,0,.25.17.34.42.28.75-.06.33-.16.62-.28.88ZM8.06,94.44c1.67-2.83,3.75-5.31,6.25-7.44s5.28-3.92,8.34-5.38c3.06-1.46,6.36-2.55,9.91-3.28,3.54-.73,7.17-1.07,10.88-1.03,3,.04,5.99.37,8.97.97,2.98.6,5.86,1.47,8.66,2.59v-41.75l-9.31,6.69v14.38c0,1.5-.34,2.89-1.03,4.16-.69,1.27-1.62,2.44-2.78,3.5-1.17,1.06-2.52,2.02-4.06,2.88-1.54.85-3.15,1.64-4.81,2.34-.08.04-.2.04-.34,0-.15-.04-.28-.1-.41-.19-.12-.08-.22-.19-.28-.31s-.07-.25-.03-.38c.25-.5.53-1.04.84-1.62.31-.58.6-1.17.88-1.75.27-.58.49-1.19.66-1.81.17-.62.25-1.25.25-1.88V24.25c0-1.67.35-3.28,1.06-4.84.71-1.56,1.66-3.07,2.84-4.53,1.19-1.46,2.56-2.82,4.12-4.09,1.56-1.27,3.21-2.46,4.94-3.56,1.73-1.1,3.49-2.09,5.28-2.97,1.79-.88,3.52-1.61,5.19-2.22,1.67-.6,3.2-1.07,4.59-1.41,1.4-.33,2.57-.5,3.53-.5,1.33,0,2.61.12,3.84.38,1.23.25,2.45.62,3.66,1.12,1.21.5,2.41,1.12,3.59,1.88s2.43,1.62,3.72,2.62l6.69-4.56,1.75,1.38-18.5,12.94c-.83-1.42-1.7-2.78-2.59-4.09-.9-1.31-1.87-2.47-2.91-3.47-1.04-1-2.16-1.79-3.34-2.38-1.19-.58-2.47-.88-3.84-.88-1.42.04-2.88.4-4.38,1.06-1.5.67-2.87,1.52-4.09,2.56-1.23,1.04-2.24,2.24-3.03,3.59-.79,1.35-1.19,2.74-1.19,4.16v26.56l9.38-6.56v-15.94h3.31v13.81l12.69-9.19,16.75,16.44-16.56,12.06c2.29,1.83,4.31,3.83,6.06,6,1.75,2.17,3.35,4.45,4.81,6.84,1.46,2.4,2.82,4.87,4.09,7.41,1.27,2.54,2.57,5.1,3.91,7.69l6.19-4.06,1.56,1.81-16.38,12.12c-.75-1.33-1.48-2.75-2.19-4.25-.71-1.5-1.4-3.06-2.06-4.69-.67-1.62-1.33-3.25-2-4.88-.67-1.62-1.32-3.23-1.97-4.81-.65-1.58-1.31-3.1-2-4.56-.69-1.46-1.39-2.81-2.09-4.06-.71-1.25-1.45-2.36-2.22-3.34-.77-.98-1.57-1.8-2.41-2.47l-6.38,4.81v18.56l6.19-4.25,2.81,1.62-16.56,12.12c-1.83-.62-3.79-1.3-5.88-2.03-2.08-.73-4.23-1.42-6.44-2.06-2.21-.65-4.45-1.16-6.72-1.53-2.27-.38-4.51-.48-6.72-.31-1.83.12-3.57.29-5.22.5-1.65.21-3.27.62-4.88,1.22-1.6.6-3.22,1.48-4.84,2.62s-3.33,2.74-5.12,4.78h-2.62ZM63.81,37.12v22.88l19.69-14.31-13.19-12.94-6.5,4.38Z" />
      <path class="cls-1"
        d="M112,50.94l-4.19-.5.56-2.56c2.58.12,5.05.01,7.41-.34,2.35-.35,4.63-.88,6.84-1.59,2.21-.71,4.38-1.55,6.5-2.53,2.12-.98,4.27-2.01,6.44-3.09l13.44,16.62-27.19,14.69v7l11,5.69,13.06-7,1.44,1.94-22.25,11.75-16.31-7.69-5.06,2.69-.94-1.69,9.25-5.81v-27.56ZM121.69,68.62l17.88-9.5-10.38-12.69c-1.08.46-2.25.91-3.5,1.34s-2.58.84-4,1.22v19.62Z" />
      <path class="cls-1"
        d="M158.88,50.94l-4.19-.5.56-2.56c2.58.12,5.05.01,7.41-.34,2.35-.35,4.63-.88,6.84-1.59,2.21-.71,4.38-1.55,6.5-2.53,2.12-.98,4.27-2.01,6.44-3.09l13.44,16.62-27.19,14.69v7l11,5.69,13.06-7,1.44,1.94-22.25,11.75-16.31-7.69-5.06,2.69-.94-1.69,9.25-5.81v-27.56ZM168.56,68.62l17.88-9.5-10.38-12.69c-1.08.46-2.25.91-3.5,1.34s-2.58.84-4,1.22v19.62Z" />
      <path class="cls-1"
        d="M209.5,40.12c.5.42,1.16.96,1.97,1.62.81.67,1.61,1.41,2.41,2.22.79.81,1.48,1.69,2.06,2.62.58.94.88,1.89.88,2.84v6.25l21-15.25,11.69,8.12,7.75-4.38,1,1.5-11.06,6.88v27.31l4.38,4.12,4.12-2.56,1.44,1.44-12.12,8.31-8.38-7.06.81-4.25v-27.69l-6.19-4.12-14.25,10.31v21.38l4.31,3.12,4.25-2.5,1.31,1.69-13.62,9.12-9.25-6.38-4.38,2.31-.94-1.69,8.62-5.81v-27.69l-4.5-3.75-5.12,2.81-1.12-1.56,12.94-9.31Z" />
      <path class="cls-1"
        d="M268.25,50.94l-4.19-.5.56-2.56c2.58.12,5.05.01,7.41-.34,2.35-.35,4.63-.88,6.84-1.59,2.21-.71,4.38-1.55,6.5-2.53,2.12-.98,4.27-2.01,6.44-3.09l13.44,16.62-27.19,14.69v7l11,5.69,13.06-7,1.44,1.94-22.25,11.75-16.31-7.69-5.06,2.69-.94-1.69,9.25-5.81v-27.56ZM277.94,68.62l17.88-9.5-10.38-12.69c-1.08.46-2.25.91-3.5,1.34s-2.58.84-4,1.22v19.62Z" />
      <path class="cls-1"
        d="M367.62.31c.75.54,1.55,1.1,2.41,1.69.85.58,1.75,1.12,2.69,1.59.94.48,1.9.89,2.88,1.22.98.33,1.97.5,2.97.5,1.04.04,2.06-.07,3.06-.34,1-.27,1.99-.62,2.97-1.06.98-.44,1.91-.94,2.78-1.5s1.67-1.13,2.38-1.72l1.31.75c-.92,1.54-1.85,3-2.81,4.38-.96,1.38-2.03,2.6-3.22,3.69-1.19,1.08-2.55,2.01-4.09,2.78-1.54.77-3.35,1.34-5.44,1.72v67.44c1.79-.79,3.46-1.59,5-2.41,1.54-.81,3.04-1.66,4.5-2.53,1.46-.88,2.9-1.8,4.31-2.78,1.42-.98,2.9-2.01,4.44-3.09l1.94,1.5c-.96,1.17-2.09,2.34-3.41,3.53s-2.76,2.37-4.34,3.53c-1.58,1.17-3.29,2.31-5.12,3.44-1.83,1.12-3.73,2.17-5.69,3.12-1.96.96-3.97,1.81-6.03,2.56s-4.14,1.38-6.22,1.88c-2.08.5-4.16.84-6.22,1.03s-4.05.18-5.97-.03c-4.29-.46-8.17-1.12-11.62-1.97-3.46-.85-6.57-1.9-9.34-3.12-2.77-1.23-5.22-2.62-7.34-4.19s-3.98-3.26-5.56-5.09c-1.58-1.83-2.93-3.78-4.03-5.84-1.1-2.06-2.02-4.21-2.75-6.44-.73-2.23-1.29-4.53-1.69-6.91-.4-2.38-.7-4.81-.91-7.31-.17-2.42-.09-4.84.22-7.28s.85-4.84,1.62-7.22c.77-2.38,1.75-4.71,2.94-7,1.19-2.29,2.53-4.5,4.03-6.62s3.17-4.15,5-6.06c1.83-1.92,3.78-3.7,5.84-5.34,2.06-1.65,4.22-3.12,6.47-4.44s4.56-2.43,6.94-3.34l.94,1.38c-4.42,2.75-8.03,5.59-10.84,8.53s-5.04,5.98-6.69,9.12c-1.65,3.15-2.79,6.43-3.44,9.84-.65,3.42-1.01,6.98-1.09,10.69-.08,2.88.05,5.67.41,8.38.35,2.71.94,5.28,1.75,7.72s1.84,4.74,3.09,6.91c1.25,2.17,2.72,4.17,4.41,6,1.69,1.83,3.59,3.47,5.72,4.91s4.47,2.66,7.03,3.66,5.35,1.76,8.38,2.28c3.02.52,6.26.76,9.72.72,1.79,0,3.56-.15,5.31-.44,1.75-.29,3.5-.52,5.25-.69V14c-1.08-.08-2.22-.22-3.41-.41s-2.35-.45-3.5-.78c-1.15-.33-2.26-.74-3.34-1.22-1.08-.48-2.08-1.09-3-1.84l-5.56,3.5v44.62c0,1.67-.3,3.27-.91,4.81-.6,1.54-1.49,2.95-2.66,4.22-1.17,1.27-2.62,2.38-4.38,3.31s-3.77,1.64-6.06,2.09c-.12.04-.24.01-.34-.09-.1-.1-.19-.23-.25-.38-.06-.15-.09-.3-.09-.47s.02-.29.06-.38c.42-.58.82-1.21,1.22-1.88.4-.67.76-1.35,1.09-2.06.33-.71.61-1.43.84-2.16.23-.73.34-1.47.34-2.22V21.56l-12.31,8.31-1.12-2.12L367.62.31Z" />
      <path class="cls-1"
        d="M403.62,8c1.29,1.46,2.45,2.9,3.47,4.31,1.02,1.42,2.01,2.88,2.97,4.38.62-1,1.27-2.01,1.94-3.03.67-1.02,1.35-2,2.06-2.94.71-.94,1.44-1.84,2.19-2.72s1.56-1.69,2.44-2.44l2.06.69c-.67,1.04-1.35,2.19-2.06,3.44-.71,1.25-1.34,2.55-1.91,3.91-.56,1.35-1.02,2.75-1.38,4.19-.35,1.44-.53,2.87-.53,4.28v32.44l23.69-14.25,9.38,6.75,3.62-2.56,1.38,1.38-7.06,5.75v28.31l4.31,4.12,4.31-2.69,1.44,1.69-12.06,8.19-8.31-7.19.62-3.25v-30.06l-5.19-3.12-15.94,9.69v22.38l4.12,3.12,4.38-2.56,1,1.69-13.69,9-9.12-6.38-4.19,2.94-1.12-1.88,8.56-6.25V18.94c0-.88-.1-1.74-.31-2.59-.21-.85-.47-1.7-.78-2.53-.31-.83-.64-1.66-.97-2.47-.33-.81-.62-1.63-.88-2.47l1.56-.88Z" />
      <path class="cls-1"
        d="M465.44,50.94l-4.19-.5.56-2.56c2.58.12,5.05.01,7.41-.34,2.35-.35,4.63-.88,6.84-1.59,2.21-.71,4.38-1.55,6.5-2.53,2.12-.98,4.27-2.01,6.44-3.09l13.44,16.62-27.19,14.69v7l11,5.69,13.06-7,1.44,1.94-22.25,11.75-16.31-7.69-5.06,2.69-.94-1.69,9.25-5.81v-27.56ZM475.12,68.62l17.88-9.5-10.38-12.69c-1.08.46-2.25.91-3.5,1.34s-2.58.84-4,1.22v19.62Z" />
      <path class="cls-1"
        d="M516.06,40.12c.5.42,1.16.96,1.97,1.62.81.67,1.61,1.41,2.41,2.22.79.81,1.48,1.69,2.06,2.62.58.94.88,1.89.88,2.84v6.25l21-15.25,11.69,8.12,7.75-4.38,1,1.5-11.06,6.88v27.31l4.38,4.12,4.12-2.56,1.44,1.44-12.12,8.31-8.38-7.06.81-4.25v-27.69l-6.19-4.12-14.25,10.31v21.38l4.31,3.12,4.25-2.5,1.31,1.69-13.62,9.12-9.25-6.38-4.38,2.31-.94-1.69,8.62-5.81v-27.69l-4.5-3.75-5.12,2.81-1.12-1.56,12.94-9.31Z" />
    </g>
  </g>
</svg>